<svg width="300" height="368" viewBox="0 0 300 368" fill="none" xmlns="http://www.w3.org/2000/svg">
<circle cx="150" cy="150" r="149.5" stroke="#32FEC1"/>
<path d="M54.6443 120.848V132H53.1883V126.944H47.5083V132H46.0523V120.848H47.5083V125.744H53.1883V120.848H54.6443ZM63.9944 120.848V122.032H60.9544V132H59.4984V122.032H56.4424V120.848H63.9944ZM77.0987 120.928V132H75.6427V123.744L71.9627 132H70.9387L67.2427 123.728V132H65.7867V120.928H67.3547L71.4507 130.08L75.5467 120.928H77.0987ZM81.0239 130.816H84.9279V132H79.5679V120.848H81.0239V130.816ZM87.9782 129.984L86.1862 134.288H85.2102L86.3782 129.984H87.9782ZM93.3677 126.416C93.3677 125.328 93.613 124.352 94.1037 123.488C94.5944 122.613 95.261 121.931 96.1037 121.44C96.957 120.949 97.901 120.704 98.9357 120.704C100.152 120.704 101.213 120.997 102.12 121.584C103.026 122.171 103.688 123.003 104.104 124.08H102.36C102.05 123.408 101.602 122.891 101.016 122.528C100.44 122.165 99.7464 121.984 98.9357 121.984C98.157 121.984 97.4584 122.165 96.8397 122.528C96.221 122.891 95.7357 123.408 95.3837 124.08C95.0317 124.741 94.8557 125.52 94.8557 126.416C94.8557 127.301 95.0317 128.08 95.3837 128.752C95.7357 129.413 96.221 129.925 96.8397 130.288C97.4584 130.651 98.157 130.832 98.9357 130.832C99.7464 130.832 100.44 130.656 101.016 130.304C101.602 129.941 102.05 129.424 102.36 128.752H104.104C103.688 129.819 103.026 130.645 102.12 131.232C101.213 131.808 100.152 132.096 98.9357 132.096C97.901 132.096 96.957 131.856 96.1037 131.376C95.261 130.885 94.5944 130.208 94.1037 129.344C93.613 128.48 93.3677 127.504 93.3677 126.416ZM109.807 132.112C109.071 132.112 108.41 131.984 107.823 131.728C107.247 131.461 106.794 131.099 106.463 130.64C106.132 130.171 105.962 129.632 105.951 129.024H107.503C107.556 129.547 107.77 129.989 108.143 130.352C108.527 130.704 109.082 130.88 109.807 130.88C110.5 130.88 111.044 130.709 111.439 130.368C111.844 130.016 112.047 129.568 112.047 129.024C112.047 128.597 111.93 128.251 111.695 127.984C111.46 127.717 111.167 127.515 110.815 127.376C110.463 127.237 109.988 127.088 109.391 126.928C108.655 126.736 108.063 126.544 107.615 126.352C107.178 126.16 106.799 125.861 106.479 125.456C106.17 125.04 106.015 124.485 106.015 123.792C106.015 123.184 106.17 122.645 106.479 122.176C106.788 121.707 107.22 121.344 107.775 121.088C108.34 120.832 108.986 120.704 109.711 120.704C110.756 120.704 111.61 120.965 112.271 121.488C112.943 122.011 113.322 122.704 113.407 123.568H111.807C111.754 123.141 111.53 122.768 111.135 122.448C110.74 122.117 110.218 121.952 109.567 121.952C108.959 121.952 108.463 122.112 108.079 122.432C107.695 122.741 107.503 123.179 107.503 123.744C107.503 124.149 107.615 124.48 107.839 124.736C108.074 124.992 108.356 125.189 108.687 125.328C109.028 125.456 109.503 125.605 110.111 125.776C110.847 125.979 111.439 126.181 111.887 126.384C112.335 126.576 112.719 126.88 113.039 127.296C113.359 127.701 113.519 128.256 113.519 128.96C113.519 129.504 113.375 130.016 113.087 130.496C112.799 130.976 112.372 131.365 111.807 131.664C111.242 131.963 110.575 132.112 109.807 132.112ZM119.198 132.112C118.462 132.112 117.8 131.984 117.214 131.728C116.638 131.461 116.184 131.099 115.854 130.64C115.523 130.171 115.352 129.632 115.342 129.024H116.894C116.947 129.547 117.16 129.989 117.534 130.352C117.918 130.704 118.472 130.88 119.198 130.88C119.891 130.88 120.435 130.709 120.83 130.368C121.235 130.016 121.438 129.568 121.438 129.024C121.438 128.597 121.32 128.251 121.086 127.984C120.851 127.717 120.558 127.515 120.206 127.376C119.854 127.237 119.379 127.088 118.782 126.928C118.046 126.736 117.454 126.544 117.006 126.352C116.568 126.16 116.19 125.861 115.87 125.456C115.56 125.04 115.406 124.485 115.406 123.792C115.406 123.184 115.56 122.645 115.87 122.176C116.179 121.707 116.611 121.344 117.166 121.088C117.731 120.832 118.376 120.704 119.102 120.704C120.147 120.704 121 120.965 121.662 121.488C122.334 122.011 122.712 122.704 122.798 123.568H121.198C121.144 123.141 120.92 122.768 120.526 122.448C120.131 122.117 119.608 121.952 118.958 121.952C118.35 121.952 117.854 122.112 117.47 122.432C117.086 122.741 116.894 123.179 116.894 123.744C116.894 124.149 117.006 124.48 117.23 124.736C117.464 124.992 117.747 125.189 118.078 125.328C118.419 125.456 118.894 125.605 119.502 125.776C120.238 125.979 120.83 126.181 121.278 126.384C121.726 126.576 122.11 126.88 122.43 127.296C122.75 127.701 122.91 128.256 122.91 128.96C122.91 129.504 122.766 130.016 122.478 130.496C122.19 130.976 121.763 131.365 121.198 131.664C120.632 131.963 119.966 132.112 119.198 132.112ZM126.556 129.984L124.764 134.288H123.788L124.956 129.984H126.556ZM138.106 120.848V129.088C138.106 130.005 137.823 130.741 137.258 131.296C136.692 131.84 135.946 132.112 135.018 132.112C134.079 132.112 133.327 131.835 132.762 131.28C132.196 130.715 131.914 129.947 131.914 128.976H133.37C133.38 129.52 133.519 129.963 133.786 130.304C134.063 130.645 134.474 130.816 135.018 130.816C135.562 130.816 135.967 130.656 136.234 130.336C136.5 130.005 136.634 129.589 136.634 129.088V120.848H138.106ZM140.43 127.584C140.43 126.688 140.612 125.904 140.974 125.232C141.337 124.549 141.833 124.021 142.462 123.648C143.102 123.275 143.812 123.088 144.59 123.088C145.358 123.088 146.025 123.253 146.59 123.584C147.156 123.915 147.577 124.331 147.854 124.832V123.232H149.326V132H147.854V130.368C147.566 130.88 147.134 131.307 146.558 131.648C145.993 131.979 145.332 132.144 144.574 132.144C143.796 132.144 143.092 131.952 142.462 131.568C141.833 131.184 141.337 130.645 140.974 129.952C140.612 129.259 140.43 128.469 140.43 127.584ZM147.854 127.6C147.854 126.939 147.721 126.363 147.454 125.872C147.188 125.381 146.825 125.008 146.366 124.752C145.918 124.485 145.422 124.352 144.878 124.352C144.334 124.352 143.838 124.48 143.39 124.736C142.942 124.992 142.585 125.365 142.318 125.856C142.052 126.347 141.918 126.923 141.918 127.584C141.918 128.256 142.052 128.843 142.318 129.344C142.585 129.835 142.942 130.213 143.39 130.48C143.838 130.736 144.334 130.864 144.878 130.864C145.422 130.864 145.918 130.736 146.366 130.48C146.825 130.213 147.188 129.835 147.454 129.344C147.721 128.843 147.854 128.261 147.854 127.6ZM155.051 130.656L157.771 123.232H159.323L155.883 132H154.187L150.747 123.232H152.315L155.051 130.656ZM160.211 127.584C160.211 126.688 160.393 125.904 160.755 125.232C161.118 124.549 161.614 124.021 162.243 123.648C162.883 123.275 163.593 123.088 164.371 123.088C165.139 123.088 165.806 123.253 166.371 123.584C166.937 123.915 167.358 124.331 167.635 124.832V123.232H169.107V132H167.635V130.368C167.347 130.88 166.915 131.307 166.339 131.648C165.774 131.979 165.113 132.144 164.355 132.144C163.577 132.144 162.873 131.952 162.243 131.568C161.614 131.184 161.118 130.645 160.755 129.952C160.393 129.259 160.211 128.469 160.211 127.584ZM167.635 127.6C167.635 126.939 167.502 126.363 167.235 125.872C166.969 125.381 166.606 125.008 166.147 124.752C165.699 124.485 165.203 124.352 164.659 124.352C164.115 124.352 163.619 124.48 163.171 124.736C162.723 124.992 162.366 125.365 162.099 125.856C161.833 126.347 161.699 126.923 161.699 127.584C161.699 128.256 161.833 128.843 162.099 129.344C162.366 129.835 162.723 130.213 163.171 130.48C163.619 130.736 164.115 130.864 164.659 130.864C165.203 130.864 165.699 130.736 166.147 130.48C166.606 130.213 166.969 129.835 167.235 129.344C167.502 128.843 167.635 128.261 167.635 127.6ZM174.672 132.144C174 132.144 173.397 132.032 172.864 131.808C172.331 131.573 171.909 131.253 171.6 130.848C171.291 130.432 171.12 129.957 171.088 129.424H172.592C172.635 129.861 172.837 130.219 173.2 130.496C173.573 130.773 174.059 130.912 174.656 130.912C175.211 130.912 175.648 130.789 175.968 130.544C176.288 130.299 176.448 129.989 176.448 129.616C176.448 129.232 176.277 128.949 175.936 128.768C175.595 128.576 175.067 128.389 174.352 128.208C173.701 128.037 173.168 127.867 172.752 127.696C172.347 127.515 171.995 127.253 171.696 126.912C171.408 126.56 171.264 126.101 171.264 125.536C171.264 125.088 171.397 124.677 171.664 124.304C171.931 123.931 172.309 123.637 172.8 123.424C173.291 123.2 173.851 123.088 174.48 123.088C175.451 123.088 176.235 123.333 176.832 123.824C177.429 124.315 177.749 124.987 177.792 125.84H176.336C176.304 125.381 176.117 125.013 175.776 124.736C175.445 124.459 174.997 124.32 174.432 124.32C173.909 124.32 173.493 124.432 173.184 124.656C172.875 124.88 172.72 125.173 172.72 125.536C172.72 125.824 172.811 126.064 172.992 126.256C173.184 126.437 173.419 126.587 173.696 126.704C173.984 126.811 174.379 126.933 174.88 127.072C175.509 127.243 176.021 127.413 176.416 127.584C176.811 127.744 177.147 127.989 177.424 128.32C177.712 128.651 177.861 129.083 177.872 129.616C177.872 130.096 177.739 130.528 177.472 130.912C177.205 131.296 176.827 131.6 176.336 131.824C175.856 132.037 175.301 132.144 174.672 132.144ZM179.383 127.6C179.383 126.693 179.565 125.904 179.927 125.232C180.29 124.549 180.791 124.021 181.431 123.648C182.082 123.275 182.823 123.088 183.655 123.088C184.733 123.088 185.618 123.349 186.311 123.872C187.015 124.395 187.479 125.12 187.703 126.048H186.135C185.986 125.515 185.693 125.093 185.255 124.784C184.829 124.475 184.295 124.32 183.655 124.32C182.823 124.32 182.151 124.608 181.639 125.184C181.127 125.749 180.871 126.555 180.871 127.6C180.871 128.656 181.127 129.472 181.639 130.048C182.151 130.624 182.823 130.912 183.655 130.912C184.295 130.912 184.829 130.763 185.255 130.464C185.682 130.165 185.975 129.739 186.135 129.184H187.703C187.469 130.08 186.999 130.8 186.295 131.344C185.591 131.877 184.711 132.144 183.655 132.144C182.823 132.144 182.082 131.957 181.431 131.584C180.791 131.211 180.29 130.683 179.927 130C179.565 129.317 179.383 128.517 179.383 127.6ZM191.102 124.656C191.358 124.155 191.721 123.765 192.19 123.488C192.67 123.211 193.251 123.072 193.934 123.072V124.576H193.55C191.918 124.576 191.102 125.461 191.102 127.232V132H189.646V123.232H191.102V124.656ZM196.367 121.808C196.089 121.808 195.855 121.712 195.663 121.52C195.471 121.328 195.375 121.093 195.375 120.816C195.375 120.539 195.471 120.304 195.663 120.112C195.855 119.92 196.089 119.824 196.367 119.824C196.633 119.824 196.857 119.92 197.039 120.112C197.231 120.304 197.327 120.539 197.327 120.816C197.327 121.093 197.231 121.328 197.039 121.52C196.857 121.712 196.633 121.808 196.367 121.808ZM197.071 123.232V132H195.615V123.232H197.071ZM201.008 124.848C201.296 124.347 201.723 123.931 202.288 123.6C202.864 123.259 203.531 123.088 204.288 123.088C205.067 123.088 205.771 123.275 206.4 123.648C207.04 124.021 207.542 124.549 207.904 125.232C208.267 125.904 208.448 126.688 208.448 127.584C208.448 128.469 208.267 129.259 207.904 129.952C207.542 130.645 207.04 131.184 206.4 131.568C205.771 131.952 205.067 132.144 204.288 132.144C203.542 132.144 202.88 131.979 202.304 131.648C201.739 131.307 201.307 130.885 201.008 130.384V136.16H199.552V123.232H201.008V124.848ZM206.96 127.584C206.96 126.923 206.827 126.347 206.56 125.856C206.294 125.365 205.931 124.992 205.472 124.736C205.024 124.48 204.528 124.352 203.984 124.352C203.451 124.352 202.955 124.485 202.496 124.752C202.048 125.008 201.686 125.387 201.408 125.888C201.142 126.379 201.008 126.949 201.008 127.6C201.008 128.261 201.142 128.843 201.408 129.344C201.686 129.835 202.048 130.213 202.496 130.48C202.955 130.736 203.451 130.864 203.984 130.864C204.528 130.864 205.024 130.736 205.472 130.48C205.931 130.213 206.294 129.835 206.56 129.344C206.827 128.843 206.96 128.256 206.96 127.584ZM212.141 124.432V129.6C212.141 130.027 212.231 130.331 212.413 130.512C212.594 130.683 212.909 130.768 213.357 130.768H214.429V132H213.117C212.306 132 211.698 131.813 211.293 131.44C210.887 131.067 210.685 130.453 210.685 129.6V124.432H209.549V123.232H210.685V121.024H212.141V123.232H214.429V124.432H212.141ZM217.697 129.984L215.905 134.288H214.929L216.097 129.984H217.697ZM231.086 124.112C231.086 125.04 230.766 125.813 230.126 126.432C229.497 127.04 228.532 127.344 227.23 127.344H225.086V132H223.63V120.848H227.23C228.489 120.848 229.444 121.152 230.094 121.76C230.756 122.368 231.086 123.152 231.086 124.112ZM227.23 126.144C228.041 126.144 228.638 125.968 229.022 125.616C229.406 125.264 229.598 124.763 229.598 124.112C229.598 122.736 228.809 122.048 227.23 122.048H225.086V126.144H227.23ZM241.488 120.848V132H240.032V126.944H234.352V132H232.896V120.848H234.352V125.744H240.032V120.848H241.488ZM251.43 124.112C251.43 125.04 251.11 125.813 250.47 126.432C249.841 127.04 248.876 127.344 247.574 127.344H245.43V132H243.974V120.848H247.574C248.833 120.848 249.788 121.152 250.438 121.76C251.1 122.368 251.43 123.152 251.43 124.112ZM247.574 126.144C248.385 126.144 248.982 125.968 249.366 125.616C249.75 125.264 249.942 124.763 249.942 124.112C249.942 122.736 249.153 122.048 247.574 122.048H245.43V126.144H247.574ZM254.744 129.984L252.952 134.288H251.976L253.144 129.984H254.744ZM35.0161 148.112C35.0161 149.04 34.6961 149.813 34.0561 150.432C33.4268 151.04 32.4615 151.344 31.1601 151.344H29.0161V156H27.5601V144.848H31.1601C32.4188 144.848 33.3735 145.152 34.0241 145.76C34.6855 146.368 35.0161 147.152 35.0161 148.112ZM31.1601 150.144C31.9708 150.144 32.5681 149.968 32.9521 149.616C33.3361 149.264 33.5281 148.763 33.5281 148.112C33.5281 146.736 32.7388 146.048 31.1601 146.048H29.0161V150.144H31.1601ZM44.3778 147.232L39.0978 160.128H37.5938L39.3218 155.904L35.7858 147.232H37.4018L40.1538 154.336L42.8738 147.232H44.3778ZM47.6174 148.432V153.6C47.6174 154.027 47.708 154.331 47.8894 154.512C48.0707 154.683 48.3854 154.768 48.8334 154.768H49.9054V156H48.5934C47.7827 156 47.1747 155.813 46.7694 155.44C46.364 155.067 46.1614 154.453 46.1614 153.6V148.432H45.0254V147.232H46.1614V145.024H47.6174V147.232H49.9054V148.432H47.6174ZM56.0215 147.072C56.6828 147.072 57.2802 147.216 57.8135 147.504C58.3468 147.781 58.7628 148.203 59.0615 148.768C59.3708 149.333 59.5255 150.021 59.5255 150.832V156H58.0855V151.04C58.0855 150.165 57.8668 149.499 57.4295 149.04C56.9922 148.571 56.3948 148.336 55.6375 148.336C54.8695 148.336 54.2562 148.576 53.7975 149.056C53.3495 149.536 53.1255 150.235 53.1255 151.152V156H51.6695V144.16H53.1255V148.48C53.4135 148.032 53.8082 147.685 54.3095 147.44C54.8215 147.195 55.3922 147.072 56.0215 147.072ZM65.7279 156.144C64.9065 156.144 64.1599 155.957 63.4879 155.584C62.8265 155.211 62.3039 154.683 61.9199 154C61.5465 153.307 61.3599 152.507 61.3599 151.6C61.3599 150.704 61.5519 149.915 61.9359 149.232C62.3305 148.539 62.8639 148.011 63.5359 147.648C64.2079 147.275 64.9599 147.088 65.7919 147.088C66.6239 147.088 67.3759 147.275 68.0479 147.648C68.7199 148.011 69.2479 148.533 69.6319 149.216C70.0265 149.899 70.2239 150.693 70.2239 151.6C70.2239 152.507 70.0212 153.307 69.6159 154C69.2212 154.683 68.6825 155.211 67.9999 155.584C67.3172 155.957 66.5599 156.144 65.7279 156.144ZM65.7279 154.864C66.2505 154.864 66.7412 154.741 67.1999 154.496C67.6585 154.251 68.0265 153.883 68.3039 153.392C68.5919 152.901 68.7359 152.304 68.7359 151.6C68.7359 150.896 68.5972 150.299 68.3199 149.808C68.0425 149.317 67.6799 148.955 67.2319 148.72C66.7839 148.475 66.2985 148.352 65.7759 148.352C65.2425 148.352 64.7519 148.475 64.3039 148.72C63.8665 148.955 63.5145 149.317 63.2479 149.808C62.9812 150.299 62.8479 150.896 62.8479 151.6C62.8479 152.315 62.9759 152.917 63.2319 153.408C63.4985 153.899 63.8505 154.267 64.2879 154.512C64.7252 154.747 65.2052 154.864 65.7279 154.864ZM76.4103 147.072C77.4769 147.072 78.3409 147.397 79.0023 148.048C79.6636 148.688 79.9943 149.616 79.9943 150.832V156H78.5543V151.04C78.5543 150.165 78.3356 149.499 77.8983 149.04C77.4609 148.571 76.8636 148.336 76.1063 148.336C75.3383 148.336 74.7249 148.576 74.2663 149.056C73.8183 149.536 73.5943 150.235 73.5943 151.152V156H72.1383V147.232H73.5943V148.48C73.8823 148.032 74.2716 147.685 74.7623 147.44C75.2636 147.195 75.8129 147.072 76.4103 147.072ZM83.8766 153.984L82.0846 158.288H81.1086L82.2766 153.984H83.8766ZM95.3941 150.256C95.7995 150.32 96.1675 150.485 96.4981 150.752C96.8395 151.019 97.1061 151.349 97.2981 151.744C97.5008 152.139 97.6021 152.56 97.6021 153.008C97.6021 153.573 97.4581 154.085 97.1701 154.544C96.8821 154.992 96.4608 155.349 95.9061 155.616C95.3621 155.872 94.7168 156 93.9701 156H89.8101V144.848H93.8101C94.5675 144.848 95.2128 144.976 95.7461 145.232C96.2795 145.477 96.6795 145.813 96.9461 146.24C97.2128 146.667 97.3461 147.147 97.3461 147.68C97.3461 148.341 97.1648 148.891 96.8021 149.328C96.4501 149.755 95.9808 150.064 95.3941 150.256ZM91.2661 149.664H93.7141C94.3968 149.664 94.9248 149.504 95.2981 149.184C95.6715 148.864 95.8581 148.421 95.8581 147.856C95.8581 147.291 95.6715 146.848 95.2981 146.528C94.9248 146.208 94.3861 146.048 93.6821 146.048H91.2661V149.664ZM93.8421 154.8C94.5675 154.8 95.1328 154.629 95.5381 154.288C95.9435 153.947 96.1461 153.472 96.1461 152.864C96.1461 152.245 95.9328 151.76 95.5061 151.408C95.0795 151.045 94.5088 150.864 93.7941 150.864H91.2661V154.8H93.8421ZM103.447 156.144C102.625 156.144 101.879 155.957 101.207 155.584C100.545 155.211 100.023 154.683 99.6386 154C99.2653 153.307 99.0786 152.507 99.0786 151.6C99.0786 150.704 99.2706 149.915 99.6546 149.232C100.049 148.539 100.583 148.011 101.255 147.648C101.927 147.275 102.679 147.088 103.511 147.088C104.343 147.088 105.095 147.275 105.767 147.648C106.439 148.011 106.967 148.533 107.351 149.216C107.745 149.899 107.943 150.693 107.943 151.6C107.943 152.507 107.74 153.307 107.335 154C106.94 154.683 106.401 155.211 105.719 155.584C105.036 155.957 104.279 156.144 103.447 156.144ZM103.447 154.864C103.969 154.864 104.46 154.741 104.919 154.496C105.377 154.251 105.745 153.883 106.023 153.392C106.311 152.901 106.455 152.304 106.455 151.6C106.455 150.896 106.316 150.299 106.039 149.808C105.761 149.317 105.399 148.955 104.951 148.72C104.503 148.475 104.017 148.352 103.495 148.352C102.961 148.352 102.471 148.475 102.023 148.72C101.585 148.955 101.233 149.317 100.967 149.808C100.7 150.299 100.567 150.896 100.567 151.6C100.567 152.315 100.695 152.917 100.951 153.408C101.217 153.899 101.569 154.267 102.007 154.512C102.444 154.747 102.924 154.864 103.447 154.864ZM113.681 156.144C112.86 156.144 112.113 155.957 111.441 155.584C110.78 155.211 110.257 154.683 109.873 154C109.5 153.307 109.313 152.507 109.313 151.6C109.313 150.704 109.505 149.915 109.889 149.232C110.284 148.539 110.817 148.011 111.489 147.648C112.161 147.275 112.913 147.088 113.745 147.088C114.577 147.088 115.329 147.275 116.001 147.648C116.673 148.011 117.201 148.533 117.585 149.216C117.98 149.899 118.177 150.693 118.177 151.6C118.177 152.507 117.974 153.307 117.569 154C117.174 154.683 116.636 155.211 115.953 155.584C115.27 155.957 114.513 156.144 113.681 156.144ZM113.681 154.864C114.204 154.864 114.694 154.741 115.153 154.496C115.612 154.251 115.98 153.883 116.257 153.392C116.545 152.901 116.689 152.304 116.689 151.6C116.689 150.896 116.55 150.299 116.273 149.808C115.996 149.317 115.633 148.955 115.185 148.72C114.737 148.475 114.252 148.352 113.729 148.352C113.196 148.352 112.705 148.475 112.257 148.72C111.82 148.955 111.468 149.317 111.201 149.808C110.934 150.299 110.801 150.896 110.801 151.6C110.801 152.315 110.929 152.917 111.185 153.408C111.452 153.899 111.804 154.267 112.241 154.512C112.678 154.747 113.158 154.864 113.681 154.864ZM121.867 148.432V153.6C121.867 154.027 121.958 154.331 122.139 154.512C122.321 154.683 122.635 154.768 123.083 154.768H124.155V156H122.843C122.033 156 121.425 155.813 121.019 155.44C120.614 155.067 120.411 154.453 120.411 153.6V148.432H119.275V147.232H120.411V145.024H121.867V147.232H124.155V148.432H121.867ZM129.024 156.144C128.352 156.144 127.749 156.032 127.216 155.808C126.682 155.573 126.261 155.253 125.952 154.848C125.642 154.432 125.472 153.957 125.44 153.424H126.944C126.986 153.861 127.189 154.219 127.552 154.496C127.925 154.773 128.41 154.912 129.008 154.912C129.562 154.912 130 154.789 130.32 154.544C130.64 154.299 130.8 153.989 130.8 153.616C130.8 153.232 130.629 152.949 130.288 152.768C129.946 152.576 129.418 152.389 128.704 152.208C128.053 152.037 127.52 151.867 127.104 151.696C126.698 151.515 126.346 151.253 126.048 150.912C125.76 150.56 125.616 150.101 125.616 149.536C125.616 149.088 125.749 148.677 126.016 148.304C126.282 147.931 126.661 147.637 127.152 147.424C127.642 147.2 128.202 147.088 128.832 147.088C129.802 147.088 130.586 147.333 131.184 147.824C131.781 148.315 132.101 148.987 132.144 149.84H130.688C130.656 149.381 130.469 149.013 130.128 148.736C129.797 148.459 129.349 148.32 128.784 148.32C128.261 148.32 127.845 148.432 127.536 148.656C127.226 148.88 127.072 149.173 127.072 149.536C127.072 149.824 127.162 150.064 127.344 150.256C127.536 150.437 127.77 150.587 128.048 150.704C128.336 150.811 128.73 150.933 129.232 151.072C129.861 151.243 130.373 151.413 130.768 151.584C131.162 151.744 131.498 151.989 131.776 152.32C132.064 152.651 132.213 153.083 132.224 153.616C132.224 154.096 132.09 154.528 131.824 154.912C131.557 155.296 131.178 155.6 130.688 155.824C130.208 156.037 129.653 156.144 129.024 156.144ZM136.055 148.432V153.6C136.055 154.027 136.146 154.331 136.327 154.512C136.508 154.683 136.823 154.768 137.271 154.768H138.343V156H137.031C136.22 156 135.612 155.813 135.207 155.44C134.802 155.067 134.599 154.453 134.599 153.6V148.432H133.463V147.232H134.599V145.024H136.055V147.232H138.343V148.432H136.055ZM141.563 148.656C141.819 148.155 142.182 147.765 142.651 147.488C143.131 147.211 143.712 147.072 144.395 147.072V148.576H144.011C142.379 148.576 141.563 149.461 141.563 151.232V156H140.107V147.232H141.563V148.656ZM145.532 151.584C145.532 150.688 145.713 149.904 146.076 149.232C146.438 148.549 146.934 148.021 147.564 147.648C148.204 147.275 148.913 147.088 149.692 147.088C150.46 147.088 151.126 147.253 151.692 147.584C152.257 147.915 152.678 148.331 152.956 148.832V147.232H154.428V156H152.956V154.368C152.668 154.88 152.236 155.307 151.66 155.648C151.094 155.979 150.433 156.144 149.676 156.144C148.897 156.144 148.193 155.952 147.564 155.568C146.934 155.184 146.438 154.645 146.076 153.952C145.713 153.259 145.532 152.469 145.532 151.584ZM152.956 151.6C152.956 150.939 152.822 150.363 152.556 149.872C152.289 149.381 151.926 149.008 151.468 148.752C151.02 148.485 150.524 148.352 149.98 148.352C149.436 148.352 148.94 148.48 148.492 148.736C148.044 148.992 147.686 149.365 147.42 149.856C147.153 150.347 147.02 150.923 147.02 151.584C147.02 152.256 147.153 152.843 147.42 153.344C147.686 153.835 148.044 154.213 148.492 154.48C148.94 154.736 149.436 154.864 149.98 154.864C150.524 154.864 151.02 154.736 151.468 154.48C151.926 154.213 152.289 153.835 152.556 153.344C152.822 152.843 152.956 152.261 152.956 151.6ZM158.344 148.848C158.632 148.347 159.059 147.931 159.624 147.6C160.2 147.259 160.867 147.088 161.624 147.088C162.403 147.088 163.107 147.275 163.736 147.648C164.376 148.021 164.878 148.549 165.24 149.232C165.603 149.904 165.784 150.688 165.784 151.584C165.784 152.469 165.603 153.259 165.24 153.952C164.878 154.645 164.376 155.184 163.736 155.568C163.107 155.952 162.403 156.144 161.624 156.144C160.878 156.144 160.216 155.979 159.64 155.648C159.075 155.307 158.643 154.885 158.344 154.384V160.16H156.888V147.232H158.344V148.848ZM164.296 151.584C164.296 150.923 164.163 150.347 163.896 149.856C163.63 149.365 163.267 148.992 162.808 148.736C162.36 148.48 161.864 148.352 161.32 148.352C160.787 148.352 160.291 148.485 159.832 148.752C159.384 149.008 159.022 149.387 158.744 149.888C158.478 150.379 158.344 150.949 158.344 151.6C158.344 152.261 158.478 152.843 158.744 153.344C159.022 153.835 159.384 154.213 159.832 154.48C160.291 154.736 160.787 154.864 161.32 154.864C161.864 154.864 162.36 154.736 162.808 154.48C163.267 154.213 163.63 153.835 163.896 153.344C164.163 152.843 164.296 152.256 164.296 151.584ZM169.205 153.984L167.413 158.288H166.437L167.605 153.984H169.205ZM182.002 144.848V146.032H178.962V156H177.506V146.032H174.45V144.848H182.002ZM183.251 151.584C183.251 150.688 183.432 149.904 183.795 149.232C184.157 148.549 184.653 148.021 185.283 147.648C185.923 147.275 186.632 147.088 187.411 147.088C188.179 147.088 188.845 147.253 189.411 147.584C189.976 147.915 190.397 148.331 190.675 148.832V147.232H192.147V156H190.675V154.368C190.387 154.88 189.955 155.307 189.379 155.648C188.813 155.979 188.152 156.144 187.395 156.144C186.616 156.144 185.912 155.952 185.283 155.568C184.653 155.184 184.157 154.645 183.795 153.952C183.432 153.259 183.251 152.469 183.251 151.584ZM190.675 151.6C190.675 150.939 190.541 150.363 190.275 149.872C190.008 149.381 189.645 149.008 189.187 148.752C188.739 148.485 188.243 148.352 187.699 148.352C187.155 148.352 186.659 148.48 186.211 148.736C185.763 148.992 185.405 149.365 185.139 149.856C184.872 150.347 184.739 150.923 184.739 151.584C184.739 152.256 184.872 152.843 185.139 153.344C185.405 153.835 185.763 154.213 186.211 154.48C186.659 154.736 187.155 154.864 187.699 154.864C188.243 154.864 188.739 154.736 189.187 154.48C189.645 154.213 190.008 153.835 190.275 153.344C190.541 152.843 190.675 152.261 190.675 151.6ZM195.359 145.808C195.082 145.808 194.847 145.712 194.655 145.52C194.463 145.328 194.367 145.093 194.367 144.816C194.367 144.539 194.463 144.304 194.655 144.112C194.847 143.92 195.082 143.824 195.359 143.824C195.626 143.824 195.85 143.92 196.031 144.112C196.223 144.304 196.319 144.539 196.319 144.816C196.319 145.093 196.223 145.328 196.031 145.52C195.85 145.712 195.626 145.808 195.359 145.808ZM196.063 147.232V156H194.607V147.232H196.063ZM200.001 144.16V156H198.545V144.16H200.001ZM214.162 147.232L211.426 156H209.922L207.81 149.04L205.698 156H204.194L201.442 147.232H202.93L204.946 154.592L207.122 147.232H208.61L210.738 154.608L212.722 147.232H214.162ZM216.359 145.808C216.082 145.808 215.847 145.712 215.655 145.52C215.463 145.328 215.367 145.093 215.367 144.816C215.367 144.539 215.463 144.304 215.655 144.112C215.847 143.92 216.082 143.824 216.359 143.824C216.626 143.824 216.85 143.92 217.031 144.112C217.223 144.304 217.319 144.539 217.319 144.816C217.319 145.093 217.223 145.328 217.031 145.52C216.85 145.712 216.626 145.808 216.359 145.808ZM217.063 147.232V156H215.607V147.232H217.063ZM223.817 147.072C224.883 147.072 225.747 147.397 226.409 148.048C227.07 148.688 227.401 149.616 227.401 150.832V156H225.961V151.04C225.961 150.165 225.742 149.499 225.305 149.04C224.867 148.571 224.27 148.336 223.513 148.336C222.745 148.336 222.131 148.576 221.673 149.056C221.225 149.536 221.001 150.235 221.001 151.152V156H219.545V147.232H221.001V148.48C221.289 148.032 221.678 147.685 222.169 147.44C222.67 147.195 223.219 147.072 223.817 147.072ZM229.235 151.584C229.235 150.688 229.416 149.904 229.779 149.232C230.142 148.549 230.638 148.021 231.267 147.648C231.907 147.275 232.622 147.088 233.411 147.088C234.094 147.088 234.728 147.248 235.315 147.568C235.902 147.877 236.35 148.288 236.659 148.8V144.16H238.131V156H236.659V154.352C236.371 154.875 235.944 155.307 235.379 155.648C234.814 155.979 234.152 156.144 233.395 156.144C232.616 156.144 231.907 155.952 231.267 155.568C230.638 155.184 230.142 154.645 229.779 153.952C229.416 153.259 229.235 152.469 229.235 151.584ZM236.659 151.6C236.659 150.939 236.526 150.363 236.259 149.872C235.992 149.381 235.63 149.008 235.171 148.752C234.723 148.485 234.227 148.352 233.683 148.352C233.139 148.352 232.643 148.48 232.195 148.736C231.747 148.992 231.39 149.365 231.123 149.856C230.856 150.347 230.723 150.923 230.723 151.584C230.723 152.256 230.856 152.843 231.123 153.344C231.39 153.835 231.747 154.213 232.195 154.48C232.643 154.736 233.139 154.864 233.683 154.864C234.227 154.864 234.723 154.736 235.171 154.48C235.63 154.213 235.992 153.835 236.259 153.344C236.526 152.843 236.659 152.261 236.659 151.6ZM240.047 150.416C240.047 149.328 240.293 148.352 240.783 147.488C241.274 146.613 241.941 145.931 242.783 145.44C243.637 144.949 244.581 144.704 245.615 144.704C246.831 144.704 247.893 144.997 248.799 145.584C249.706 146.171 250.367 147.003 250.783 148.08H249.039C248.73 147.408 248.282 146.891 247.695 146.528C247.119 146.165 246.426 145.984 245.615 145.984C244.837 145.984 244.138 146.165 243.519 146.528C242.901 146.891 242.415 147.408 242.063 148.08C241.711 148.741 241.535 149.52 241.535 150.416C241.535 151.301 241.711 152.08 242.063 152.752C242.415 153.413 242.901 153.925 243.519 154.288C244.138 154.651 244.837 154.832 245.615 154.832C246.426 154.832 247.119 154.656 247.695 154.304C248.282 153.941 248.73 153.424 249.039 152.752H250.783C250.367 153.819 249.706 154.645 248.799 155.232C247.893 155.808 246.831 156.096 245.615 156.096C244.581 156.096 243.637 155.856 242.783 155.376C241.941 154.885 241.274 154.208 240.783 153.344C240.293 152.48 240.047 151.504 240.047 150.416ZM256.487 156.112C255.751 156.112 255.089 155.984 254.503 155.728C253.927 155.461 253.473 155.099 253.143 154.64C252.812 154.171 252.641 153.632 252.631 153.024H254.183C254.236 153.547 254.449 153.989 254.823 154.352C255.207 154.704 255.761 154.88 256.487 154.88C257.18 154.88 257.724 154.709 258.119 154.368C258.524 154.016 258.727 153.568 258.727 153.024C258.727 152.597 258.609 152.251 258.375 151.984C258.14 151.717 257.847 151.515 257.495 151.376C257.143 151.237 256.668 151.088 256.071 150.928C255.335 150.736 254.743 150.544 254.295 150.352C253.857 150.16 253.479 149.861 253.159 149.456C252.849 149.04 252.695 148.485 252.695 147.792C252.695 147.184 252.849 146.645 253.159 146.176C253.468 145.707 253.9 145.344 254.455 145.088C255.02 144.832 255.665 144.704 256.391 144.704C257.436 144.704 258.289 144.965 258.951 145.488C259.623 146.011 260.001 146.704 260.087 147.568H258.487C258.433 147.141 258.209 146.768 257.815 146.448C257.42 146.117 256.897 145.952 256.247 145.952C255.639 145.952 255.143 146.112 254.759 146.432C254.375 146.741 254.183 147.179 254.183 147.744C254.183 148.149 254.295 148.48 254.519 148.736C254.753 148.992 255.036 149.189 255.367 149.328C255.708 149.456 256.183 149.605 256.791 149.776C257.527 149.979 258.119 150.181 258.567 150.384C259.015 150.576 259.399 150.88 259.719 151.296C260.039 151.701 260.199 152.256 260.199 152.96C260.199 153.504 260.055 154.016 259.767 154.496C259.479 154.976 259.052 155.365 258.487 155.664C257.921 155.963 257.255 156.112 256.487 156.112ZM265.877 156.112C265.141 156.112 264.48 155.984 263.893 155.728C263.317 155.461 262.864 155.099 262.533 154.64C262.203 154.171 262.032 153.632 262.021 153.024H263.573C263.627 153.547 263.84 153.989 264.213 154.352C264.597 154.704 265.152 154.88 265.877 154.88C266.571 154.88 267.115 154.709 267.509 154.368C267.915 154.016 268.117 153.568 268.117 153.024C268.117 152.597 268 152.251 267.765 151.984C267.531 151.717 267.237 151.515 266.885 151.376C266.533 151.237 266.059 151.088 265.461 150.928C264.725 150.736 264.133 150.544 263.685 150.352C263.248 150.16 262.869 149.861 262.549 149.456C262.24 149.04 262.085 148.485 262.085 147.792C262.085 147.184 262.24 146.645 262.549 146.176C262.859 145.707 263.291 145.344 263.845 145.088C264.411 144.832 265.056 144.704 265.781 144.704C266.827 144.704 267.68 144.965 268.341 145.488C269.013 146.011 269.392 146.704 269.477 147.568H267.877C267.824 147.141 267.6 146.768 267.205 146.448C266.811 146.117 266.288 145.952 265.637 145.952C265.029 145.952 264.533 146.112 264.149 146.432C263.765 146.741 263.573 147.179 263.573 147.744C263.573 148.149 263.685 148.48 263.909 148.736C264.144 148.992 264.427 149.189 264.757 149.328C265.099 149.456 265.573 149.605 266.181 149.776C266.917 149.979 267.509 150.181 267.957 150.384C268.405 150.576 268.789 150.88 269.109 151.296C269.429 151.701 269.589 152.256 269.589 152.96C269.589 153.504 269.445 154.016 269.157 154.496C268.869 154.976 268.443 155.365 267.877 155.664C267.312 155.963 266.645 156.112 265.877 156.112ZM273.236 153.984L271.444 158.288H270.468L271.636 153.984H273.236ZM103.704 174.416C103.704 173.328 103.949 172.352 104.44 171.488C104.93 170.613 105.597 169.931 106.44 169.44C107.293 168.949 108.237 168.704 109.272 168.704C110.488 168.704 111.549 168.997 112.456 169.584C113.362 170.171 114.024 171.003 114.44 172.08H112.696C112.386 171.408 111.938 170.891 111.352 170.528C110.776 170.165 110.082 169.984 109.272 169.984C108.493 169.984 107.794 170.165 107.176 170.528C106.557 170.891 106.072 171.408 105.72 172.08C105.368 172.741 105.192 173.52 105.192 174.416C105.192 175.301 105.368 176.08 105.72 176.752C106.072 177.413 106.557 177.925 107.176 178.288C107.794 178.651 108.493 178.832 109.272 178.832C110.082 178.832 110.776 178.656 111.352 178.304C111.938 177.941 112.386 177.424 112.696 176.752H114.44C114.024 177.819 113.362 178.645 112.456 179.232C111.549 179.808 110.488 180.096 109.272 180.096C108.237 180.096 107.293 179.856 106.44 179.376C105.597 178.885 104.93 178.208 104.44 177.344C103.949 176.48 103.704 175.504 103.704 174.416ZM120.431 180.144C119.61 180.144 118.863 179.957 118.191 179.584C117.53 179.211 117.007 178.683 116.623 178C116.25 177.307 116.063 176.507 116.063 175.6C116.063 174.704 116.255 173.915 116.639 173.232C117.034 172.539 117.567 172.011 118.239 171.648C118.911 171.275 119.663 171.088 120.495 171.088C121.327 171.088 122.079 171.275 122.751 171.648C123.423 172.011 123.951 172.533 124.335 173.216C124.73 173.899 124.927 174.693 124.927 175.6C124.927 176.507 124.724 177.307 124.319 178C123.924 178.683 123.386 179.211 122.703 179.584C122.02 179.957 121.263 180.144 120.431 180.144ZM120.431 178.864C120.954 178.864 121.444 178.741 121.903 178.496C122.362 178.251 122.73 177.883 123.007 177.392C123.295 176.901 123.439 176.304 123.439 175.6C123.439 174.896 123.3 174.299 123.023 173.808C122.746 173.317 122.383 172.955 121.935 172.72C121.487 172.475 121.002 172.352 120.479 172.352C119.946 172.352 119.455 172.475 119.007 172.72C118.57 172.955 118.218 173.317 117.951 173.808C117.684 174.299 117.551 174.896 117.551 175.6C117.551 176.315 117.679 176.917 117.935 177.408C118.202 177.899 118.554 178.267 118.991 178.512C119.428 178.747 119.908 178.864 120.431 178.864ZM126.297 175.584C126.297 174.688 126.479 173.904 126.841 173.232C127.204 172.549 127.7 172.021 128.329 171.648C128.969 171.275 129.684 171.088 130.473 171.088C131.156 171.088 131.791 171.248 132.377 171.568C132.964 171.877 133.412 172.288 133.721 172.8V168.16H135.193V180H133.721V178.352C133.433 178.875 133.007 179.307 132.441 179.648C131.876 179.979 131.215 180.144 130.457 180.144C129.679 180.144 128.969 179.952 128.329 179.568C127.7 179.184 127.204 178.645 126.841 177.952C126.479 177.259 126.297 176.469 126.297 175.584ZM133.721 175.6C133.721 174.939 133.588 174.363 133.321 173.872C133.055 173.381 132.692 173.008 132.233 172.752C131.785 172.485 131.289 172.352 130.745 172.352C130.201 172.352 129.705 172.48 129.257 172.736C128.809 172.992 128.452 173.365 128.185 173.856C127.919 174.347 127.785 174.923 127.785 175.584C127.785 176.256 127.919 176.843 128.185 177.344C128.452 177.835 128.809 178.213 129.257 178.48C129.705 178.736 130.201 178.864 130.745 178.864C131.289 178.864 131.785 178.736 132.233 178.48C132.692 178.213 133.055 177.835 133.321 177.344C133.588 176.843 133.721 176.261 133.721 175.6ZM145.654 175.28C145.654 175.557 145.638 175.851 145.606 176.16H138.598C138.651 177.024 138.945 177.701 139.478 178.192C140.022 178.672 140.678 178.912 141.446 178.912C142.075 178.912 142.598 178.768 143.014 178.48C143.441 178.181 143.739 177.787 143.91 177.296H145.478C145.243 178.139 144.774 178.827 144.07 179.36C143.366 179.883 142.491 180.144 141.446 180.144C140.614 180.144 139.867 179.957 139.206 179.584C138.555 179.211 138.043 178.683 137.67 178C137.297 177.307 137.11 176.507 137.11 175.6C137.11 174.693 137.291 173.899 137.654 173.216C138.017 172.533 138.523 172.011 139.174 171.648C139.835 171.275 140.593 171.088 141.446 171.088C142.278 171.088 143.014 171.269 143.654 171.632C144.294 171.995 144.785 172.496 145.126 173.136C145.478 173.765 145.654 174.48 145.654 175.28ZM144.15 174.976C144.15 174.421 144.027 173.947 143.782 173.552C143.537 173.147 143.201 172.843 142.774 172.64C142.358 172.427 141.894 172.32 141.382 172.32C140.646 172.32 140.017 172.555 139.494 173.024C138.982 173.493 138.689 174.144 138.614 174.976H144.15ZM149.032 168.848V180H147.576V168.848H149.032ZM155.129 171.088C155.887 171.088 156.548 171.253 157.113 171.584C157.689 171.915 158.116 172.331 158.393 172.832V171.232H159.865V180.192C159.865 180.992 159.695 181.701 159.353 182.32C159.012 182.949 158.521 183.44 157.881 183.792C157.252 184.144 156.516 184.32 155.673 184.32C154.521 184.32 153.561 184.048 152.793 183.504C152.025 182.96 151.572 182.219 151.433 181.28H152.873C153.033 181.813 153.364 182.24 153.865 182.56C154.367 182.891 154.969 183.056 155.673 183.056C156.473 183.056 157.124 182.805 157.625 182.304C158.137 181.803 158.393 181.099 158.393 180.192V178.352C158.105 178.864 157.679 179.291 157.113 179.632C156.548 179.973 155.887 180.144 155.129 180.144C154.351 180.144 153.641 179.952 153.001 179.568C152.372 179.184 151.876 178.645 151.513 177.952C151.151 177.259 150.969 176.469 150.969 175.584C150.969 174.688 151.151 173.904 151.513 173.232C151.876 172.549 152.372 172.021 153.001 171.648C153.641 171.275 154.351 171.088 155.129 171.088ZM158.393 175.6C158.393 174.939 158.26 174.363 157.993 173.872C157.727 173.381 157.364 173.008 156.905 172.752C156.457 172.485 155.961 172.352 155.417 172.352C154.873 172.352 154.377 172.48 153.929 172.736C153.481 172.992 153.124 173.365 152.857 173.856C152.591 174.347 152.457 174.923 152.457 175.584C152.457 176.256 152.591 176.843 152.857 177.344C153.124 177.835 153.481 178.213 153.929 178.48C154.377 178.736 154.873 178.864 155.417 178.864C155.961 178.864 156.457 178.736 156.905 178.48C157.364 178.213 157.727 177.835 157.993 177.344C158.26 176.843 158.393 176.261 158.393 175.6ZM166.598 171.072C167.664 171.072 168.528 171.397 169.19 172.048C169.851 172.688 170.182 173.616 170.182 174.832V180H168.742V175.04C168.742 174.165 168.523 173.499 168.086 173.04C167.648 172.571 167.051 172.336 166.294 172.336C165.526 172.336 164.912 172.576 164.454 173.056C164.006 173.536 163.782 174.235 163.782 175.152V180H162.326V171.232H163.782V172.48C164.07 172.032 164.459 171.685 164.95 171.44C165.451 171.195 166 171.072 166.598 171.072ZM173.312 169.808C173.035 169.808 172.8 169.712 172.608 169.52C172.416 169.328 172.32 169.093 172.32 168.816C172.32 168.539 172.416 168.304 172.608 168.112C172.8 167.92 173.035 167.824 173.312 167.824C173.579 167.824 173.803 167.92 173.984 168.112C174.176 168.304 174.272 168.539 174.272 168.816C174.272 169.093 174.176 169.328 173.984 169.52C173.803 169.712 173.579 169.808 173.312 169.808ZM174.016 171.232V180H172.56V171.232H174.016ZM178.274 172.432V177.6C178.274 178.027 178.364 178.331 178.546 178.512C178.727 178.683 179.042 178.768 179.49 178.768H180.562V180H179.25C178.439 180 177.831 179.813 177.426 179.44C177.02 179.067 176.818 178.453 176.818 177.6V172.432H175.682V171.232H176.818V169.024H178.274V171.232H180.562V172.432H178.274ZM190.326 175.28C190.326 175.557 190.31 175.851 190.278 176.16H183.27C183.323 177.024 183.616 177.701 184.15 178.192C184.694 178.672 185.35 178.912 186.118 178.912C186.747 178.912 187.27 178.768 187.686 178.48C188.112 178.181 188.411 177.787 188.582 177.296H190.15C189.915 178.139 189.446 178.827 188.742 179.36C188.038 179.883 187.163 180.144 186.118 180.144C185.286 180.144 184.539 179.957 183.878 179.584C183.227 179.211 182.715 178.683 182.342 178C181.968 177.307 181.782 176.507 181.782 175.6C181.782 174.693 181.963 173.899 182.326 173.216C182.688 172.533 183.195 172.011 183.846 171.648C184.507 171.275 185.264 171.088 186.118 171.088C186.95 171.088 187.686 171.269 188.326 171.632C188.966 171.995 189.456 172.496 189.798 173.136C190.15 173.765 190.326 174.48 190.326 175.28ZM188.822 174.976C188.822 174.421 188.699 173.947 188.454 173.552C188.208 173.147 187.872 172.843 187.446 172.64C187.03 172.427 186.566 172.32 186.054 172.32C185.318 172.32 184.688 172.555 184.166 173.024C183.654 173.493 183.36 174.144 183.286 174.976H188.822ZM193.704 172.656C193.96 172.155 194.322 171.765 194.792 171.488C195.272 171.211 195.853 171.072 196.536 171.072V172.576H196.152C194.52 172.576 193.704 173.461 193.704 175.232V180H192.248V171.232H193.704V172.656Z" fill="white"/>
<circle cx="150" cy="298" r="60" fill="#32FEC1" stroke="#202020" stroke-width="20"/>
<path d="M160 272.922H140C130 272.922 125 277.922 125 287.922V300.422C125 312.922 130 315.422 140 315.422H141.25C141.95 315.422 142.85 315.872 143.25 316.422L147 321.422C148.65 323.622 151.35 323.622 153 321.422L156.75 316.422C157.225 315.797 157.975 315.422 158.75 315.422H160C170 315.422 175 310.422 175 300.422V287.922C175 277.922 170 272.922 160 272.922ZM141.325 298.422C142.05 299.147 142.05 300.347 141.325 301.072C140.95 301.447 140.475 301.622 140 301.622C139.525 301.622 139.05 301.447 138.675 301.072L133.675 296.072C133.326 295.72 133.131 295.244 133.131 294.747C133.131 294.251 133.326 293.775 133.675 293.422L138.675 288.422C139.4 287.697 140.6 287.697 141.325 288.422C142.05 289.147 142.05 290.347 141.325 291.072L137.65 294.747L141.325 298.422ZM154.225 289.647L149.225 301.322C148.925 302.022 148.225 302.447 147.5 302.447C147.187 302.452 146.878 302.377 146.601 302.23C146.325 302.084 146.09 301.87 145.918 301.608C145.746 301.346 145.643 301.046 145.618 300.734C145.593 300.421 145.647 300.108 145.775 299.822L150.775 288.147C151.175 287.197 152.275 286.747 153.25 287.172C154.2 287.597 154.625 288.697 154.225 289.647ZM166.325 296.072L161.325 301.072C160.95 301.447 160.475 301.622 160 301.622C159.525 301.622 159.05 301.447 158.675 301.072C158.326 300.72 158.131 300.244 158.131 299.747C158.131 299.251 158.326 298.775 158.675 298.422L162.35 294.747L158.675 291.072C158.326 290.72 158.131 290.244 158.131 289.747C158.131 289.251 158.326 288.775 158.675 288.422C159.4 287.697 160.6 287.697 161.325 288.422L166.325 293.422C167.05 294.147 167.05 295.347 166.325 296.072Z" fill="#202020"/>
</svg>
