<svg width="140" height="140" viewBox="0 0 140 140" fill="none" xmlns="http://www.w3.org/2000/svg">
<path d="M70 18.6667V18.725M70 44.9167V44.975M70 68.25V68.3084" stroke="#32FEC1" stroke-width="3" stroke-miterlimit="10" stroke-linecap="round" stroke-linejoin="round"/>
<path d="M70 91.5833V91.6416" stroke="#32FEC1" stroke-width="2" stroke-miterlimit="10" stroke-linecap="round" stroke-linejoin="round"/>
<path d="M70 112V112.058" stroke="#32FEC1" stroke-width="1.5" stroke-miterlimit="10" stroke-linecap="round" stroke-linejoin="round"/>
<path d="M70 129.5V129.558" stroke="#32FEC1" stroke-miterlimit="10" stroke-linecap="round" stroke-linejoin="round"/>
<path d="M20.4167 44.9167V44.975M119.583 44.9167V44.975" stroke="#32FEC1" stroke-width="3" stroke-miterlimit="10" stroke-linecap="round" stroke-linejoin="round"/>
<path d="M119.583 68.25V68.3083M20.4167 68.25V68.3083" stroke="#32FEC1" stroke-width="2" stroke-miterlimit="10" stroke-linecap="round" stroke-linejoin="round"/>
<path d="M119.583 85.75V85.8083" stroke="#32FEC1" stroke-width="1.5" stroke-miterlimit="10" stroke-linecap="round" stroke-linejoin="round"/>
<path d="M119.583 103.25V103.308" stroke="#32FEC1" stroke-miterlimit="10" stroke-linecap="round" stroke-linejoin="round"/>
<path d="M20.4167 85.75V85.8083" stroke="#32FEC1" stroke-width="1.5" stroke-miterlimit="10" stroke-linecap="round" stroke-linejoin="round"/>
<path d="M20.4167 103.25V103.308" stroke="#32FEC1" stroke-miterlimit="10" stroke-linecap="round" stroke-linejoin="round"/>
<path d="M45.5 56.5833V56.6416M45.2083 32.0833V32.1416M94.5 56.5833V56.6416M94.7917 32.0833V32.1416" stroke="#32FEC1" stroke-width="3" stroke-miterlimit="10" stroke-linecap="round" stroke-linejoin="round"/>
<path d="M45.5 79.9167V79.975" stroke="#32FEC1" stroke-width="2" stroke-miterlimit="10" stroke-linecap="round" stroke-linejoin="round"/>
<path d="M45.5 97.4167V97.475" stroke="#32FEC1" stroke-width="1.5" stroke-miterlimit="10" stroke-linecap="round" stroke-linejoin="round"/>
<path d="M45.5 114.917V114.975" stroke="#32FEC1" stroke-miterlimit="10" stroke-linecap="round" stroke-linejoin="round"/>
<path d="M94.5 79.9167V79.975" stroke="#32FEC1" stroke-width="2" stroke-miterlimit="10" stroke-linecap="round" stroke-linejoin="round"/>
<path d="M94.5 97.4167V97.475" stroke="#32FEC1" stroke-width="1.5" stroke-miterlimit="10" stroke-linecap="round" stroke-linejoin="round"/>
<path d="M94.5 114.917V114.975" stroke="#32FEC1" stroke-miterlimit="10" stroke-linecap="round" stroke-linejoin="round"/>
</svg>
