<svg width="300" height="368" viewBox="0 0 300 368" fill="none" xmlns="http://www.w3.org/2000/svg">
<circle cx="150" cy="150" r="149.5" stroke="#32FEC1"/>
<path d="M60.3954 120.848V122.032H55.5474V125.792H59.4834V126.976H55.5474V132H54.0914V120.848H60.3954ZM62.9059 121.808C62.6285 121.808 62.3939 121.712 62.2019 121.52C62.0099 121.328 61.9139 121.093 61.9139 120.816C61.9139 120.539 62.0099 120.304 62.2019 120.112C62.3939 119.92 62.6285 119.824 62.9059 119.824C63.1725 119.824 63.3965 119.92 63.5779 120.112C63.7699 120.304 63.8659 120.539 63.8659 120.816C63.8659 121.093 63.7699 121.328 63.5779 121.52C63.3965 121.712 63.1725 121.808 62.9059 121.808ZM63.6099 123.232V132H62.1539V123.232H63.6099ZM69.7074 123.088C70.4647 123.088 71.126 123.253 71.6914 123.584C72.2674 123.915 72.694 124.331 72.9714 124.832V123.232H74.4434V132.192C74.4434 132.992 74.2727 133.701 73.9314 134.32C73.59 134.949 73.0994 135.44 72.4594 135.792C71.83 136.144 71.094 136.32 70.2514 136.32C69.0994 136.32 68.1394 136.048 67.3714 135.504C66.6034 134.96 66.15 134.219 66.0114 133.28H67.4514C67.6114 133.813 67.942 134.24 68.4434 134.56C68.9447 134.891 69.5474 135.056 70.2514 135.056C71.0514 135.056 71.702 134.805 72.2034 134.304C72.7154 133.803 72.9714 133.099 72.9714 132.192V130.352C72.6834 130.864 72.2567 131.291 71.6914 131.632C71.126 131.973 70.4647 132.144 69.7074 132.144C68.9287 132.144 68.2194 131.952 67.5794 131.568C66.95 131.184 66.454 130.645 66.0914 129.952C65.7287 129.259 65.5474 128.469 65.5474 127.584C65.5474 126.688 65.7287 125.904 66.0914 125.232C66.454 124.549 66.95 124.021 67.5794 123.648C68.2194 123.275 68.9287 123.088 69.7074 123.088ZM72.9714 127.6C72.9714 126.939 72.838 126.363 72.5714 125.872C72.3047 125.381 71.942 125.008 71.4834 124.752C71.0354 124.485 70.5394 124.352 69.9954 124.352C69.4514 124.352 68.9554 124.48 68.5074 124.736C68.0594 124.992 67.702 125.365 67.4354 125.856C67.1687 126.347 67.0354 126.923 67.0354 127.584C67.0354 128.256 67.1687 128.843 67.4354 129.344C67.702 129.835 68.0594 130.213 68.5074 130.48C68.9554 130.736 69.4514 130.864 69.9954 130.864C70.5394 130.864 71.0354 130.736 71.4834 130.48C71.942 130.213 72.3047 129.835 72.5714 129.344C72.838 128.843 72.9714 128.261 72.9714 127.6ZM87.4479 123.072C88.1305 123.072 88.7385 123.216 89.2719 123.504C89.8052 123.781 90.2265 124.203 90.5359 124.768C90.8452 125.333 90.9999 126.021 90.9999 126.832V132H89.5599V127.04C89.5599 126.165 89.3412 125.499 88.9039 125.04C88.4772 124.571 87.8959 124.336 87.1599 124.336C86.4025 124.336 85.7999 124.581 85.3519 125.072C84.9039 125.552 84.6799 126.251 84.6799 127.168V132H83.2399V127.04C83.2399 126.165 83.0212 125.499 82.5839 125.04C82.1572 124.571 81.5759 124.336 80.8399 124.336C80.0825 124.336 79.4799 124.581 79.0319 125.072C78.5839 125.552 78.3599 126.251 78.3599 127.168V132H76.9039V123.232H78.3599V124.496C78.6479 124.037 79.0319 123.685 79.5119 123.44C80.0025 123.195 80.5412 123.072 81.1279 123.072C81.8639 123.072 82.5145 123.237 83.0799 123.568C83.6452 123.899 84.0665 124.384 84.3439 125.024C84.5892 124.405 84.9945 123.925 85.5599 123.584C86.1252 123.243 86.7545 123.072 87.4479 123.072ZM92.8443 127.584C92.8443 126.688 93.0256 125.904 93.3883 125.232C93.7509 124.549 94.2469 124.021 94.8763 123.648C95.5163 123.275 96.2256 123.088 97.0043 123.088C97.7723 123.088 98.4389 123.253 99.0043 123.584C99.5696 123.915 99.9909 124.331 100.268 124.832V123.232H101.74V132H100.268V130.368C99.9803 130.88 99.5483 131.307 98.9723 131.648C98.4069 131.979 97.7456 132.144 96.9883 132.144C96.2096 132.144 95.5056 131.952 94.8763 131.568C94.2469 131.184 93.7509 130.645 93.3883 129.952C93.0256 129.259 92.8443 128.469 92.8443 127.584ZM100.268 127.6C100.268 126.939 100.135 126.363 99.8683 125.872C99.6016 125.381 99.2389 125.008 98.7803 124.752C98.3323 124.485 97.8363 124.352 97.2923 124.352C96.7483 124.352 96.2523 124.48 95.8043 124.736C95.3563 124.992 94.9989 125.365 94.7323 125.856C94.4656 126.347 94.3323 126.923 94.3323 127.584C94.3323 128.256 94.4656 128.843 94.7323 129.344C94.9989 129.835 95.3563 130.213 95.8043 130.48C96.2523 130.736 96.7483 130.864 97.2923 130.864C97.8363 130.864 98.3323 130.736 98.7803 130.48C99.2389 130.213 99.6016 129.835 99.8683 129.344C100.135 128.843 100.268 128.261 100.268 127.6ZM105.705 129.984L103.913 134.288H102.937L104.105 129.984H105.705ZM117.942 120.848V122.032H113.094V125.792H117.03V126.976H113.094V132H111.638V120.848H117.942ZM121.157 124.656C121.413 124.155 121.775 123.765 122.245 123.488C122.725 123.211 123.306 123.072 123.989 123.072V124.576H123.605C121.973 124.576 121.157 125.461 121.157 127.232V132H119.701V123.232H121.157V124.656ZM125.126 127.584C125.126 126.688 125.307 125.904 125.67 125.232C126.032 124.549 126.528 124.021 127.158 123.648C127.798 123.275 128.507 123.088 129.286 123.088C130.054 123.088 130.72 123.253 131.286 123.584C131.851 123.915 132.272 124.331 132.55 124.832V123.232H134.022V132H132.55V130.368C132.262 130.88 131.83 131.307 131.254 131.648C130.688 131.979 130.027 132.144 129.27 132.144C128.491 132.144 127.787 131.952 127.158 131.568C126.528 131.184 126.032 130.645 125.67 129.952C125.307 129.259 125.126 128.469 125.126 127.584ZM132.55 127.6C132.55 126.939 132.416 126.363 132.15 125.872C131.883 125.381 131.52 125.008 131.062 124.752C130.614 124.485 130.118 124.352 129.574 124.352C129.03 124.352 128.534 124.48 128.086 124.736C127.638 124.992 127.28 125.365 127.014 125.856C126.747 126.347 126.614 126.923 126.614 127.584C126.614 128.256 126.747 128.843 127.014 129.344C127.28 129.835 127.638 130.213 128.086 130.48C128.534 130.736 129.03 130.864 129.574 130.864C130.118 130.864 130.614 130.736 131.062 130.48C131.52 130.213 131.883 129.835 132.15 129.344C132.416 128.843 132.55 128.261 132.55 127.6ZM147.026 123.072C147.709 123.072 148.317 123.216 148.85 123.504C149.383 123.781 149.805 124.203 150.114 124.768C150.423 125.333 150.578 126.021 150.578 126.832V132H149.138V127.04C149.138 126.165 148.919 125.499 148.482 125.04C148.055 124.571 147.474 124.336 146.738 124.336C145.981 124.336 145.378 124.581 144.93 125.072C144.482 125.552 144.258 126.251 144.258 127.168V132H142.818V127.04C142.818 126.165 142.599 125.499 142.162 125.04C141.735 124.571 141.154 124.336 140.418 124.336C139.661 124.336 139.058 124.581 138.61 125.072C138.162 125.552 137.938 126.251 137.938 127.168V132H136.482V123.232H137.938V124.496C138.226 124.037 138.61 123.685 139.09 123.44C139.581 123.195 140.119 123.072 140.706 123.072C141.442 123.072 142.093 123.237 142.658 123.568C143.223 123.899 143.645 124.384 143.922 125.024C144.167 124.405 144.573 123.925 145.138 123.584C145.703 123.243 146.333 123.072 147.026 123.072ZM160.966 127.28C160.966 127.557 160.95 127.851 160.918 128.16H153.91C153.964 129.024 154.257 129.701 154.79 130.192C155.334 130.672 155.99 130.912 156.758 130.912C157.388 130.912 157.91 130.768 158.326 130.48C158.753 130.181 159.052 129.787 159.222 129.296H160.79C160.556 130.139 160.086 130.827 159.382 131.36C158.678 131.883 157.804 132.144 156.758 132.144C155.926 132.144 155.18 131.957 154.518 131.584C153.868 131.211 153.356 130.683 152.982 130C152.609 129.307 152.422 128.507 152.422 127.6C152.422 126.693 152.604 125.899 152.966 125.216C153.329 124.533 153.836 124.011 154.486 123.648C155.148 123.275 155.905 123.088 156.758 123.088C157.59 123.088 158.326 123.269 158.966 123.632C159.606 123.995 160.097 124.496 160.438 125.136C160.79 125.765 160.966 126.48 160.966 127.28ZM159.462 126.976C159.462 126.421 159.34 125.947 159.094 125.552C158.849 125.147 158.513 124.843 158.086 124.64C157.67 124.427 157.206 124.32 156.694 124.32C155.958 124.32 155.329 124.555 154.806 125.024C154.294 125.493 154.001 126.144 153.926 126.976H159.462ZM164.344 124.656C164.6 124.155 164.963 123.765 165.432 123.488C165.912 123.211 166.494 123.072 167.176 123.072V124.576H166.792C165.16 124.576 164.344 125.461 164.344 127.232V132H162.888V123.232H164.344V124.656ZM170.361 129.984L168.569 134.288H167.593L168.761 129.984H170.361ZM190.311 120.848L187.079 132H185.447L182.855 123.024L180.167 132L178.551 132.016L175.431 120.848H176.983L179.415 130.304L182.103 120.848H183.735L186.295 130.272L188.743 120.848H190.311ZM199.904 127.28C199.904 127.557 199.888 127.851 199.856 128.16H192.848C192.901 129.024 193.195 129.701 193.728 130.192C194.272 130.672 194.928 130.912 195.696 130.912C196.325 130.912 196.848 130.768 197.264 130.48C197.691 130.181 197.989 129.787 198.16 129.296H199.728C199.493 130.139 199.024 130.827 198.32 131.36C197.616 131.883 196.741 132.144 195.696 132.144C194.864 132.144 194.117 131.957 193.456 131.584C192.805 131.211 192.293 130.683 191.92 130C191.547 129.307 191.36 128.507 191.36 127.6C191.36 126.693 191.541 125.899 191.904 125.216C192.267 124.533 192.773 124.011 193.424 123.648C194.085 123.275 194.843 123.088 195.696 123.088C196.528 123.088 197.264 123.269 197.904 123.632C198.544 123.995 199.035 124.496 199.376 125.136C199.728 125.765 199.904 126.48 199.904 127.28ZM198.4 126.976C198.4 126.421 198.277 125.947 198.032 125.552C197.787 125.147 197.451 124.843 197.024 124.64C196.608 124.427 196.144 124.32 195.632 124.32C194.896 124.32 194.267 124.555 193.744 125.024C193.232 125.493 192.939 126.144 192.864 126.976H198.4ZM203.282 124.864C203.58 124.341 204.018 123.915 204.594 123.584C205.17 123.253 205.826 123.088 206.562 123.088C207.351 123.088 208.06 123.275 208.69 123.648C209.319 124.021 209.815 124.549 210.178 125.232C210.54 125.904 210.722 126.688 210.722 127.584C210.722 128.469 210.54 129.259 210.178 129.952C209.815 130.645 209.314 131.184 208.674 131.568C208.044 131.952 207.34 132.144 206.562 132.144C205.804 132.144 205.138 131.979 204.562 131.648C203.996 131.317 203.57 130.896 203.282 130.384V132H201.826V120.16H203.282V124.864ZM209.234 127.584C209.234 126.923 209.1 126.347 208.834 125.856C208.567 125.365 208.204 124.992 207.746 124.736C207.298 124.48 206.802 124.352 206.258 124.352C205.724 124.352 205.228 124.485 204.77 124.752C204.322 125.008 203.959 125.387 203.682 125.888C203.415 126.379 203.282 126.949 203.282 127.6C203.282 128.261 203.415 128.843 203.682 129.344C203.959 129.835 204.322 130.213 204.77 130.48C205.228 130.736 205.724 130.864 206.258 130.864C206.802 130.864 207.298 130.736 207.746 130.48C208.204 130.213 208.567 129.835 208.834 129.344C209.1 128.843 209.234 128.256 209.234 127.584ZM216.206 124.432H214.366V132H212.91V124.432H211.774V123.232H212.91V122.608C212.91 121.627 213.161 120.912 213.662 120.464C214.174 120.005 214.99 119.776 216.11 119.776V120.992C215.47 120.992 215.017 121.12 214.75 121.376C214.494 121.621 214.366 122.032 214.366 122.608V123.232H216.206V124.432ZM219.36 120.16V132H217.904V120.16H219.36ZM225.665 132.144C224.844 132.144 224.097 131.957 223.425 131.584C222.764 131.211 222.241 130.683 221.857 130C221.484 129.307 221.297 128.507 221.297 127.6C221.297 126.704 221.489 125.915 221.873 125.232C222.268 124.539 222.801 124.011 223.473 123.648C224.145 123.275 224.897 123.088 225.729 123.088C226.561 123.088 227.313 123.275 227.985 123.648C228.657 124.011 229.185 124.533 229.569 125.216C229.964 125.899 230.161 126.693 230.161 127.6C230.161 128.507 229.959 129.307 229.553 130C229.159 130.683 228.62 131.211 227.937 131.584C227.255 131.957 226.497 132.144 225.665 132.144ZM225.665 130.864C226.188 130.864 226.679 130.741 227.137 130.496C227.596 130.251 227.964 129.883 228.241 129.392C228.529 128.901 228.673 128.304 228.673 127.6C228.673 126.896 228.535 126.299 228.257 125.808C227.98 125.317 227.617 124.955 227.169 124.72C226.721 124.475 226.236 124.352 225.713 124.352C225.18 124.352 224.689 124.475 224.241 124.72C223.804 124.955 223.452 125.317 223.185 125.808C222.919 126.299 222.785 126.896 222.785 127.6C222.785 128.315 222.913 128.917 223.169 129.408C223.436 129.899 223.788 130.267 224.225 130.512C224.663 130.747 225.143 130.864 225.665 130.864ZM243.756 123.232L241.02 132H239.516L237.404 125.04L235.292 132H233.788L231.036 123.232H232.524L234.54 130.592L236.716 123.232H238.204L240.332 130.608L242.316 123.232H243.756ZM246.705 129.984L244.913 134.288H243.937L245.105 129.984H246.705ZM48.4881 153.52H43.6241L42.7281 156H41.1921L45.2241 144.912H46.9041L50.9201 156H49.3841L48.4881 153.52ZM48.0721 152.336L46.0561 146.704L44.0401 152.336H48.0721ZM53.4293 145.808C53.152 145.808 52.9173 145.712 52.7253 145.52C52.5333 145.328 52.4373 145.093 52.4373 144.816C52.4373 144.539 52.5333 144.304 52.7253 144.112C52.9173 143.92 53.152 143.824 53.4293 143.824C53.696 143.824 53.92 143.92 54.1013 144.112C54.2933 144.304 54.3893 144.539 54.3893 144.816C54.3893 145.093 54.2933 145.328 54.1013 145.52C53.92 145.712 53.696 145.808 53.4293 145.808ZM54.1333 147.232V156H52.6773V147.232H54.1333ZM58.0708 148.656C58.3268 148.155 58.6895 147.765 59.1588 147.488C59.6388 147.211 60.2201 147.072 60.9028 147.072V148.576H60.5188C58.8868 148.576 58.0708 149.461 58.0708 151.232V156H56.6148V147.232H58.0708V148.656ZM64.3596 148.432V153.6C64.3596 154.027 64.4502 154.331 64.6316 154.512C64.8129 154.683 65.1276 154.768 65.5756 154.768H66.6476V156H65.3356C64.5249 156 63.9169 155.813 63.5116 155.44C63.1062 155.067 62.9036 154.453 62.9036 153.6V148.432H61.7676V147.232H62.9036V145.024H64.3596V147.232H66.6476V148.432H64.3596ZM67.8677 151.584C67.8677 150.688 68.049 149.904 68.4117 149.232C68.7744 148.549 69.2704 148.021 69.8997 147.648C70.5397 147.275 71.249 147.088 72.0277 147.088C72.7957 147.088 73.4624 147.253 74.0277 147.584C74.593 147.915 75.0144 148.331 75.2917 148.832V147.232H76.7637V156H75.2917V154.368C75.0037 154.88 74.5717 155.307 73.9957 155.648C73.4304 155.979 72.769 156.144 72.0117 156.144C71.233 156.144 70.529 155.952 69.8997 155.568C69.2704 155.184 68.7744 154.645 68.4117 153.952C68.049 153.259 67.8677 152.469 67.8677 151.584ZM75.2917 151.6C75.2917 150.939 75.1584 150.363 74.8917 149.872C74.625 149.381 74.2624 149.008 73.8037 148.752C73.3557 148.485 72.8597 148.352 72.3157 148.352C71.7717 148.352 71.2757 148.48 70.8277 148.736C70.3797 148.992 70.0224 149.365 69.7557 149.856C69.489 150.347 69.3557 150.923 69.3557 151.584C69.3557 152.256 69.489 152.843 69.7557 153.344C70.0224 153.835 70.3797 154.213 70.8277 154.48C71.2757 154.736 71.7717 154.864 72.3157 154.864C72.8597 154.864 73.3557 154.736 73.8037 154.48C74.2624 154.213 74.625 153.835 74.8917 153.344C75.1584 152.843 75.2917 152.261 75.2917 151.6ZM80.6802 148.864C80.9789 148.341 81.4162 147.915 81.9922 147.584C82.5682 147.253 83.2242 147.088 83.9602 147.088C84.7495 147.088 85.4589 147.275 86.0882 147.648C86.7175 148.021 87.2135 148.549 87.5762 149.232C87.9389 149.904 88.1202 150.688 88.1202 151.584C88.1202 152.469 87.9389 153.259 87.5762 153.952C87.2135 154.645 86.7122 155.184 86.0722 155.568C85.4429 155.952 84.7389 156.144 83.9602 156.144C83.2029 156.144 82.5362 155.979 81.9602 155.648C81.3949 155.317 80.9682 154.896 80.6802 154.384V156H79.2242V144.16H80.6802V148.864ZM86.6322 151.584C86.6322 150.923 86.4989 150.347 86.2322 149.856C85.9655 149.365 85.6029 148.992 85.1442 148.736C84.6962 148.48 84.2002 148.352 83.6562 148.352C83.1229 148.352 82.6269 148.485 82.1682 148.752C81.7202 149.008 81.3575 149.387 81.0802 149.888C80.8135 150.379 80.6802 150.949 80.6802 151.6C80.6802 152.261 80.8135 152.843 81.0802 153.344C81.3575 153.835 81.7202 154.213 82.1682 154.48C82.6269 154.736 83.1229 154.864 83.6562 154.864C84.2002 154.864 84.6962 154.736 85.1442 154.48C85.6029 154.213 85.9655 153.835 86.2322 153.344C86.4989 152.843 86.6322 152.256 86.6322 151.584ZM91.4927 144.16V156H90.0367V144.16H91.4927ZM101.974 151.28C101.974 151.557 101.958 151.851 101.926 152.16H94.9182C94.9715 153.024 95.2649 153.701 95.7982 154.192C96.3422 154.672 96.9982 154.912 97.7662 154.912C98.3955 154.912 98.9182 154.768 99.3342 154.48C99.7609 154.181 100.06 153.787 100.23 153.296H101.798C101.564 154.139 101.094 154.827 100.39 155.36C99.6862 155.883 98.8115 156.144 97.7662 156.144C96.9342 156.144 96.1875 155.957 95.5262 155.584C94.8755 155.211 94.3635 154.683 93.9902 154C93.6169 153.307 93.4302 152.507 93.4302 151.6C93.4302 150.693 93.6115 149.899 93.9742 149.216C94.3369 148.533 94.8435 148.011 95.4942 147.648C96.1555 147.275 96.9129 147.088 97.7662 147.088C98.5982 147.088 99.3342 147.269 99.9742 147.632C100.614 147.995 101.105 148.496 101.446 149.136C101.798 149.765 101.974 150.48 101.974 151.28ZM100.47 150.976C100.47 150.421 100.348 149.947 100.102 149.552C99.8569 149.147 99.5209 148.843 99.0942 148.64C98.6782 148.427 98.2142 148.32 97.7022 148.32C96.9662 148.32 96.3369 148.555 95.8142 149.024C95.3022 149.493 95.0089 150.144 94.9342 150.976H100.47ZM105.4 153.984L103.608 158.288H102.632L103.8 153.984H105.4ZM118.79 148.112C118.79 149.04 118.47 149.813 117.83 150.432C117.2 151.04 116.235 151.344 114.934 151.344H112.79V156H111.334V144.848H114.934C116.192 144.848 117.147 145.152 117.798 145.76C118.459 146.368 118.79 147.152 118.79 148.112ZM114.934 150.144C115.744 150.144 116.342 149.968 116.726 149.616C117.11 149.264 117.302 148.763 117.302 148.112C117.302 146.736 116.512 146.048 114.934 146.048H112.79V150.144H114.934ZM124.951 147.072C125.613 147.072 126.21 147.216 126.743 147.504C127.277 147.781 127.693 148.203 127.991 148.768C128.301 149.333 128.455 150.021 128.455 150.832V156H127.015V151.04C127.015 150.165 126.797 149.499 126.359 149.04C125.922 148.571 125.325 148.336 124.567 148.336C123.799 148.336 123.186 148.576 122.727 149.056C122.279 149.536 122.055 150.235 122.055 151.152V156H120.599V144.16H122.055V148.48C122.343 148.032 122.738 147.685 123.239 147.44C123.751 147.195 124.322 147.072 124.951 147.072ZM134.658 156.144C133.836 156.144 133.09 155.957 132.418 155.584C131.756 155.211 131.234 154.683 130.85 154C130.476 153.307 130.29 152.507 130.29 151.6C130.29 150.704 130.482 149.915 130.866 149.232C131.26 148.539 131.794 148.011 132.466 147.648C133.138 147.275 133.89 147.088 134.722 147.088C135.554 147.088 136.306 147.275 136.978 147.648C137.65 148.011 138.178 148.533 138.562 149.216C138.956 149.899 139.154 150.693 139.154 151.6C139.154 152.507 138.951 153.307 138.546 154C138.151 154.683 137.612 155.211 136.93 155.584C136.247 155.957 135.49 156.144 134.658 156.144ZM134.658 154.864C135.18 154.864 135.671 154.741 136.13 154.496C136.588 154.251 136.956 153.883 137.234 153.392C137.522 152.901 137.666 152.304 137.666 151.6C137.666 150.896 137.527 150.299 137.25 149.808C136.972 149.317 136.61 148.955 136.162 148.72C135.714 148.475 135.228 148.352 134.706 148.352C134.172 148.352 133.682 148.475 133.234 148.72C132.796 148.955 132.444 149.317 132.178 149.808C131.911 150.299 131.778 150.896 131.778 151.6C131.778 152.315 131.906 152.917 132.162 153.408C132.428 153.899 132.78 154.267 133.218 154.512C133.655 154.747 134.135 154.864 134.658 154.864ZM142.844 148.432V153.6C142.844 154.027 142.935 154.331 143.116 154.512C143.297 154.683 143.612 154.768 144.06 154.768H145.132V156H143.82C143.009 156 142.401 155.813 141.996 155.44C141.591 155.067 141.388 154.453 141.388 153.6V148.432H140.252V147.232H141.388V145.024H142.844V147.232H145.132V148.432H142.844ZM150.72 156.144C149.899 156.144 149.152 155.957 148.48 155.584C147.819 155.211 147.296 154.683 146.912 154C146.539 153.307 146.352 152.507 146.352 151.6C146.352 150.704 146.544 149.915 146.928 149.232C147.323 148.539 147.856 148.011 148.528 147.648C149.2 147.275 149.952 147.088 150.784 147.088C151.616 147.088 152.368 147.275 153.04 147.648C153.712 148.011 154.24 148.533 154.624 149.216C155.019 149.899 155.216 150.693 155.216 151.6C155.216 152.507 155.013 153.307 154.608 154C154.213 154.683 153.675 155.211 152.992 155.584C152.309 155.957 151.552 156.144 150.72 156.144ZM150.72 154.864C151.243 154.864 151.733 154.741 152.192 154.496C152.651 154.251 153.019 153.883 153.296 153.392C153.584 152.901 153.728 152.304 153.728 151.6C153.728 150.896 153.589 150.299 153.312 149.808C153.035 149.317 152.672 148.955 152.224 148.72C151.776 148.475 151.291 148.352 150.768 148.352C150.235 148.352 149.744 148.475 149.296 148.72C148.859 148.955 148.507 149.317 148.24 149.808C147.973 150.299 147.84 150.896 147.84 151.6C147.84 152.315 147.968 152.917 148.224 153.408C148.491 153.899 148.843 154.267 149.28 154.512C149.717 154.747 150.197 154.864 150.72 154.864ZM160.234 156.144C159.562 156.144 158.96 156.032 158.426 155.808C157.893 155.573 157.472 155.253 157.162 154.848C156.853 154.432 156.682 153.957 156.65 153.424H158.154C158.197 153.861 158.4 154.219 158.762 154.496C159.136 154.773 159.621 154.912 160.218 154.912C160.773 154.912 161.21 154.789 161.53 154.544C161.85 154.299 162.01 153.989 162.01 153.616C162.01 153.232 161.84 152.949 161.498 152.768C161.157 152.576 160.629 152.389 159.914 152.208C159.264 152.037 158.73 151.867 158.314 151.696C157.909 151.515 157.557 151.253 157.258 150.912C156.97 150.56 156.826 150.101 156.826 149.536C156.826 149.088 156.96 148.677 157.226 148.304C157.493 147.931 157.872 147.637 158.362 147.424C158.853 147.2 159.413 147.088 160.042 147.088C161.013 147.088 161.797 147.333 162.394 147.824C162.992 148.315 163.312 148.987 163.354 149.84H161.898C161.866 149.381 161.68 149.013 161.338 148.736C161.008 148.459 160.56 148.32 159.994 148.32C159.472 148.32 159.056 148.432 158.746 148.656C158.437 148.88 158.282 149.173 158.282 149.536C158.282 149.824 158.373 150.064 158.554 150.256C158.746 150.437 158.981 150.587 159.258 150.704C159.546 150.811 159.941 150.933 160.442 151.072C161.072 151.243 161.584 151.413 161.978 151.584C162.373 151.744 162.709 151.989 162.986 152.32C163.274 152.651 163.424 153.083 163.434 153.616C163.434 154.096 163.301 154.528 163.034 154.912C162.768 155.296 162.389 155.6 161.898 155.824C161.418 156.037 160.864 156.144 160.234 156.144ZM169.842 147.072C170.503 147.072 171.1 147.216 171.634 147.504C172.167 147.781 172.583 148.203 172.882 148.768C173.191 149.333 173.346 150.021 173.346 150.832V156H171.906V151.04C171.906 150.165 171.687 149.499 171.25 149.04C170.812 148.571 170.215 148.336 169.458 148.336C168.69 148.336 168.076 148.576 167.618 149.056C167.17 149.536 166.946 150.235 166.946 151.152V156H165.49V144.16H166.946V148.48C167.234 148.032 167.628 147.685 168.13 147.44C168.642 147.195 169.212 147.072 169.842 147.072ZM179.548 156.144C178.727 156.144 177.98 155.957 177.308 155.584C176.647 155.211 176.124 154.683 175.74 154C175.367 153.307 175.18 152.507 175.18 151.6C175.18 150.704 175.372 149.915 175.756 149.232C176.151 148.539 176.684 148.011 177.356 147.648C178.028 147.275 178.78 147.088 179.612 147.088C180.444 147.088 181.196 147.275 181.868 147.648C182.54 148.011 183.068 148.533 183.452 149.216C183.847 149.899 184.044 150.693 184.044 151.6C184.044 152.507 183.842 153.307 183.436 154C183.042 154.683 182.503 155.211 181.82 155.584C181.138 155.957 180.38 156.144 179.548 156.144ZM179.548 154.864C180.071 154.864 180.562 154.741 181.02 154.496C181.479 154.251 181.847 153.883 182.124 153.392C182.412 152.901 182.556 152.304 182.556 151.6C182.556 150.896 182.418 150.299 182.14 149.808C181.863 149.317 181.5 148.955 181.052 148.72C180.604 148.475 180.119 148.352 179.596 148.352C179.063 148.352 178.572 148.475 178.124 148.72C177.687 148.955 177.335 149.317 177.068 149.808C176.802 150.299 176.668 150.896 176.668 151.6C176.668 152.315 176.796 152.917 177.052 153.408C177.319 153.899 177.671 154.267 178.108 154.512C178.546 154.747 179.026 154.864 179.548 154.864ZM187.415 148.848C187.703 148.347 188.129 147.931 188.695 147.6C189.271 147.259 189.937 147.088 190.695 147.088C191.473 147.088 192.177 147.275 192.807 147.648C193.447 148.021 193.948 148.549 194.311 149.232C194.673 149.904 194.855 150.688 194.855 151.584C194.855 152.469 194.673 153.259 194.311 153.952C193.948 154.645 193.447 155.184 192.807 155.568C192.177 155.952 191.473 156.144 190.695 156.144C189.948 156.144 189.287 155.979 188.711 155.648C188.145 155.307 187.713 154.885 187.415 154.384V160.16H185.959V147.232H187.415V148.848ZM193.367 151.584C193.367 150.923 193.233 150.347 192.967 149.856C192.7 149.365 192.337 148.992 191.879 148.736C191.431 148.48 190.935 148.352 190.391 148.352C189.857 148.352 189.361 148.485 188.903 148.752C188.455 149.008 188.092 149.387 187.815 149.888C187.548 150.379 187.415 150.949 187.415 151.6C187.415 152.261 187.548 152.843 187.815 153.344C188.092 153.835 188.455 154.213 188.903 154.48C189.361 154.736 189.857 154.864 190.391 154.864C190.935 154.864 191.431 154.736 191.879 154.48C192.337 154.213 192.7 153.835 192.967 153.344C193.233 152.843 193.367 152.256 193.367 151.584ZM198.275 153.984L196.483 158.288H195.507L196.675 153.984H198.275ZM203.665 150.416C203.665 149.328 203.91 148.352 204.401 147.488C204.891 146.613 205.558 145.931 206.401 145.44C207.254 144.949 208.198 144.704 209.233 144.704C210.449 144.704 211.51 144.997 212.417 145.584C213.323 146.171 213.985 147.003 214.401 148.08H212.657C212.347 147.408 211.899 146.891 211.313 146.528C210.737 146.165 210.043 145.984 209.233 145.984C208.454 145.984 207.755 146.165 207.137 146.528C206.518 146.891 206.033 147.408 205.681 148.08C205.329 148.741 205.153 149.52 205.153 150.416C205.153 151.301 205.329 152.08 205.681 152.752C206.033 153.413 206.518 153.925 207.137 154.288C207.755 154.651 208.454 154.832 209.233 154.832C210.043 154.832 210.737 154.656 211.313 154.304C211.899 153.941 212.347 153.424 212.657 152.752H214.401C213.985 153.819 213.323 154.645 212.417 155.232C211.51 155.808 210.449 156.096 209.233 156.096C208.198 156.096 207.254 155.856 206.401 155.376C205.558 154.885 204.891 154.208 204.401 153.344C203.91 152.48 203.665 151.504 203.665 150.416ZM216.024 151.584C216.024 150.688 216.205 149.904 216.568 149.232C216.931 148.549 217.427 148.021 218.056 147.648C218.696 147.275 219.405 147.088 220.184 147.088C220.952 147.088 221.619 147.253 222.184 147.584C222.749 147.915 223.171 148.331 223.448 148.832V147.232H224.92V156H223.448V154.368C223.16 154.88 222.728 155.307 222.152 155.648C221.587 155.979 220.925 156.144 220.168 156.144C219.389 156.144 218.685 155.952 218.056 155.568C217.427 155.184 216.931 154.645 216.568 153.952C216.205 153.259 216.024 152.469 216.024 151.584ZM223.448 151.6C223.448 150.939 223.315 150.363 223.048 149.872C222.781 149.381 222.419 149.008 221.96 148.752C221.512 148.485 221.016 148.352 220.472 148.352C219.928 148.352 219.432 148.48 218.984 148.736C218.536 148.992 218.179 149.365 217.912 149.856C217.645 150.347 217.512 150.923 217.512 151.584C217.512 152.256 217.645 152.843 217.912 153.344C218.179 153.835 218.536 154.213 218.984 154.48C219.432 154.736 219.928 154.864 220.472 154.864C221.016 154.864 221.512 154.736 221.96 154.48C222.419 154.213 222.781 153.835 223.048 153.344C223.315 152.843 223.448 152.261 223.448 151.6ZM231.652 147.072C232.719 147.072 233.583 147.397 234.244 148.048C234.906 148.688 235.236 149.616 235.236 150.832V156H233.796V151.04C233.796 150.165 233.578 149.499 233.14 149.04C232.703 148.571 232.106 148.336 231.348 148.336C230.58 148.336 229.967 148.576 229.508 149.056C229.06 149.536 228.836 150.235 228.836 151.152V156H227.38V147.232H228.836V148.48C229.124 148.032 229.514 147.685 230.004 147.44C230.506 147.195 231.055 147.072 231.652 147.072ZM240.879 154.656L243.599 147.232H245.151L241.711 156H240.015L236.575 147.232H238.143L240.879 154.656ZM246.04 151.584C246.04 150.688 246.221 149.904 246.584 149.232C246.946 148.549 247.442 148.021 248.072 147.648C248.712 147.275 249.421 147.088 250.2 147.088C250.968 147.088 251.634 147.253 252.2 147.584C252.765 147.915 253.186 148.331 253.464 148.832V147.232H254.936V156H253.464V154.368C253.176 154.88 252.744 155.307 252.168 155.648C251.602 155.979 250.941 156.144 250.184 156.144C249.405 156.144 248.701 155.952 248.072 155.568C247.442 155.184 246.946 154.645 246.584 153.952C246.221 153.259 246.04 152.469 246.04 151.584ZM253.464 151.6C253.464 150.939 253.33 150.363 253.064 149.872C252.797 149.381 252.434 149.008 251.976 148.752C251.528 148.485 251.032 148.352 250.488 148.352C249.944 148.352 249.448 148.48 249 148.736C248.552 148.992 248.194 149.365 247.928 149.856C247.661 150.347 247.528 150.923 247.528 151.584C247.528 152.256 247.661 152.843 247.928 153.344C248.194 153.835 248.552 154.213 249 154.48C249.448 154.736 249.944 154.864 250.488 154.864C251.032 154.864 251.528 154.736 251.976 154.48C252.434 154.213 252.797 153.835 253.064 153.344C253.33 152.843 253.464 152.261 253.464 151.6ZM258.9 153.984L257.108 158.288H256.132L257.3 153.984H258.9ZM85.2527 168.848L81.0447 180H79.3647L75.1567 168.848H76.7087L80.2127 178.464L83.7167 168.848H85.2527ZM87.6012 169.808C87.3239 169.808 87.0892 169.712 86.8972 169.52C86.7052 169.328 86.6092 169.093 86.6092 168.816C86.6092 168.539 86.7052 168.304 86.8972 168.112C87.0892 167.92 87.3239 167.824 87.6012 167.824C87.8679 167.824 88.0919 167.92 88.2732 168.112C88.4652 168.304 88.5612 168.539 88.5612 168.816C88.5612 169.093 88.4652 169.328 88.2732 169.52C88.0919 169.712 87.8679 169.808 87.6012 169.808ZM88.3052 171.232V180H86.8492V171.232H88.3052ZM93.8907 180.144C93.2187 180.144 92.616 180.032 92.0827 179.808C91.5494 179.573 91.128 179.253 90.8187 178.848C90.5094 178.432 90.3387 177.957 90.3067 177.424H91.8107C91.8534 177.861 92.056 178.219 92.4187 178.496C92.792 178.773 93.2774 178.912 93.8747 178.912C94.4294 178.912 94.8667 178.789 95.1867 178.544C95.5067 178.299 95.6667 177.989 95.6667 177.616C95.6667 177.232 95.496 176.949 95.1547 176.768C94.8134 176.576 94.2854 176.389 93.5707 176.208C92.92 176.037 92.3867 175.867 91.9707 175.696C91.5654 175.515 91.2134 175.253 90.9147 174.912C90.6267 174.56 90.4827 174.101 90.4827 173.536C90.4827 173.088 90.616 172.677 90.8827 172.304C91.1494 171.931 91.528 171.637 92.0187 171.424C92.5094 171.2 93.0694 171.088 93.6987 171.088C94.6694 171.088 95.4534 171.333 96.0507 171.824C96.648 172.315 96.968 172.987 97.0107 173.84H95.5547C95.5227 173.381 95.336 173.013 94.9947 172.736C94.664 172.459 94.216 172.32 93.6507 172.32C93.128 172.32 92.712 172.432 92.4027 172.656C92.0934 172.88 91.9387 173.173 91.9387 173.536C91.9387 173.824 92.0294 174.064 92.2107 174.256C92.4027 174.437 92.6374 174.587 92.9147 174.704C93.2027 174.811 93.5974 174.933 94.0987 175.072C94.728 175.243 95.24 175.413 95.6347 175.584C96.0294 175.744 96.3654 175.989 96.6427 176.32C96.9307 176.651 97.08 177.083 97.0907 177.616C97.0907 178.096 96.9574 178.528 96.6907 178.912C96.424 179.296 96.0454 179.6 95.5547 179.824C95.0747 180.037 94.52 180.144 93.8907 180.144ZM106.922 171.232V180H105.466V178.704C105.189 179.152 104.799 179.504 104.298 179.76C103.807 180.005 103.263 180.128 102.666 180.128C101.983 180.128 101.37 179.989 100.826 179.712C100.282 179.424 99.8501 178.997 99.5301 178.432C99.2207 177.867 99.0661 177.179 99.0661 176.368V171.232H100.506V176.176C100.506 177.04 100.725 177.707 101.162 178.176C101.599 178.635 102.197 178.864 102.954 178.864C103.733 178.864 104.346 178.624 104.794 178.144C105.242 177.664 105.466 176.965 105.466 176.048V171.232H106.922ZM108.836 175.584C108.836 174.688 109.018 173.904 109.38 173.232C109.743 172.549 110.239 172.021 110.868 171.648C111.508 171.275 112.218 171.088 112.996 171.088C113.764 171.088 114.431 171.253 114.996 171.584C115.562 171.915 115.983 172.331 116.26 172.832V171.232H117.732V180H116.26V178.368C115.972 178.88 115.54 179.307 114.964 179.648C114.399 179.979 113.738 180.144 112.98 180.144C112.202 180.144 111.498 179.952 110.868 179.568C110.239 179.184 109.743 178.645 109.38 177.952C109.018 177.259 108.836 176.469 108.836 175.584ZM116.26 175.6C116.26 174.939 116.127 174.363 115.86 173.872C115.594 173.381 115.231 173.008 114.772 172.752C114.324 172.485 113.828 172.352 113.284 172.352C112.74 172.352 112.244 172.48 111.796 172.736C111.348 172.992 110.991 173.365 110.724 173.856C110.458 174.347 110.324 174.923 110.324 175.584C110.324 176.256 110.458 176.843 110.724 177.344C110.991 177.835 111.348 178.213 111.796 178.48C112.244 178.736 112.74 178.864 113.284 178.864C113.828 178.864 114.324 178.736 114.772 178.48C115.231 178.213 115.594 177.835 115.86 177.344C116.127 176.843 116.26 176.261 116.26 175.6ZM121.649 168.16V180H120.193V168.16H121.649ZM131.932 180.112C131.196 180.112 130.535 179.984 129.948 179.728C129.372 179.461 128.919 179.099 128.588 178.64C128.257 178.171 128.087 177.632 128.076 177.024H129.628C129.681 177.547 129.895 177.989 130.268 178.352C130.652 178.704 131.207 178.88 131.932 178.88C132.625 178.88 133.169 178.709 133.564 178.368C133.969 178.016 134.172 177.568 134.172 177.024C134.172 176.597 134.055 176.251 133.82 175.984C133.585 175.717 133.292 175.515 132.94 175.376C132.588 175.237 132.113 175.088 131.516 174.928C130.78 174.736 130.188 174.544 129.74 174.352C129.303 174.16 128.924 173.861 128.604 173.456C128.295 173.04 128.14 172.485 128.14 171.792C128.14 171.184 128.295 170.645 128.604 170.176C128.913 169.707 129.345 169.344 129.9 169.088C130.465 168.832 131.111 168.704 131.836 168.704C132.881 168.704 133.735 168.965 134.396 169.488C135.068 170.011 135.447 170.704 135.532 171.568H133.932C133.879 171.141 133.655 170.768 133.26 170.448C132.865 170.117 132.343 169.952 131.692 169.952C131.084 169.952 130.588 170.112 130.204 170.432C129.82 170.741 129.628 171.179 129.628 171.744C129.628 172.149 129.74 172.48 129.964 172.736C130.199 172.992 130.481 173.189 130.812 173.328C131.153 173.456 131.628 173.605 132.236 173.776C132.972 173.979 133.564 174.181 134.012 174.384C134.46 174.576 134.844 174.88 135.164 175.296C135.484 175.701 135.644 176.256 135.644 176.96C135.644 177.504 135.5 178.016 135.212 178.496C134.924 178.976 134.497 179.365 133.932 179.664C133.367 179.963 132.7 180.112 131.932 180.112ZM139.563 172.432V177.6C139.563 178.027 139.653 178.331 139.835 178.512C140.016 178.683 140.331 178.768 140.779 178.768H141.851V180H140.539C139.728 180 139.12 179.813 138.715 179.44C138.309 179.067 138.107 178.453 138.107 177.6V172.432H136.971V171.232H138.107V169.024H139.563V171.232H141.851V172.432H139.563ZM151.391 171.232V180H149.935V178.704C149.657 179.152 149.268 179.504 148.767 179.76C148.276 180.005 147.732 180.128 147.135 180.128C146.452 180.128 145.839 179.989 145.295 179.712C144.751 179.424 144.319 178.997 143.999 178.432C143.689 177.867 143.535 177.179 143.535 176.368V171.232H144.975V176.176C144.975 177.04 145.193 177.707 145.631 178.176C146.068 178.635 146.665 178.864 147.423 178.864C148.201 178.864 148.815 178.624 149.263 178.144C149.711 177.664 149.935 176.965 149.935 176.048V171.232H151.391ZM153.305 175.584C153.305 174.688 153.487 173.904 153.849 173.232C154.212 172.549 154.708 172.021 155.337 171.648C155.977 171.275 156.692 171.088 157.481 171.088C158.164 171.088 158.799 171.248 159.385 171.568C159.972 171.877 160.42 172.288 160.729 172.8V168.16H162.201V180H160.729V178.352C160.441 178.875 160.015 179.307 159.449 179.648C158.884 179.979 158.223 180.144 157.465 180.144C156.687 180.144 155.977 179.952 155.337 179.568C154.708 179.184 154.212 178.645 153.849 177.952C153.487 177.259 153.305 176.469 153.305 175.584ZM160.729 175.6C160.729 174.939 160.596 174.363 160.329 173.872C160.063 173.381 159.7 173.008 159.241 172.752C158.793 172.485 158.297 172.352 157.753 172.352C157.209 172.352 156.713 172.48 156.265 172.736C155.817 172.992 155.46 173.365 155.193 173.856C154.927 174.347 154.793 174.923 154.793 175.584C154.793 176.256 154.927 176.843 155.193 177.344C155.46 177.835 155.817 178.213 156.265 178.48C156.713 178.736 157.209 178.864 157.753 178.864C158.297 178.864 158.793 178.736 159.241 178.48C159.7 178.213 160.063 177.835 160.329 177.344C160.596 176.843 160.729 176.261 160.729 175.6ZM165.414 169.808C165.136 169.808 164.902 169.712 164.71 169.52C164.518 169.328 164.422 169.093 164.422 168.816C164.422 168.539 164.518 168.304 164.71 168.112C164.902 167.92 165.136 167.824 165.414 167.824C165.68 167.824 165.904 167.92 166.086 168.112C166.278 168.304 166.374 168.539 166.374 168.816C166.374 169.093 166.278 169.328 166.086 169.52C165.904 169.712 165.68 169.808 165.414 169.808ZM166.118 171.232V180H164.662V171.232H166.118ZM172.423 180.144C171.602 180.144 170.855 179.957 170.183 179.584C169.522 179.211 168.999 178.683 168.615 178C168.242 177.307 168.055 176.507 168.055 175.6C168.055 174.704 168.247 173.915 168.631 173.232C169.026 172.539 169.559 172.011 170.231 171.648C170.903 171.275 171.655 171.088 172.487 171.088C173.319 171.088 174.071 171.275 174.743 171.648C175.415 172.011 175.943 172.533 176.327 173.216C176.722 173.899 176.919 174.693 176.919 175.6C176.919 176.507 176.717 177.307 176.311 178C175.917 178.683 175.378 179.211 174.695 179.584C174.013 179.957 173.255 180.144 172.423 180.144ZM172.423 178.864C172.946 178.864 173.437 178.741 173.895 178.496C174.354 178.251 174.722 177.883 174.999 177.392C175.287 176.901 175.431 176.304 175.431 175.6C175.431 174.896 175.293 174.299 175.015 173.808C174.738 173.317 174.375 172.955 173.927 172.72C173.479 172.475 172.994 172.352 172.471 172.352C171.938 172.352 171.447 172.475 170.999 172.72C170.562 172.955 170.21 173.317 169.943 173.808C169.677 174.299 169.543 174.896 169.543 175.6C169.543 176.315 169.671 176.917 169.927 177.408C170.194 177.899 170.546 178.267 170.983 178.512C171.421 178.747 171.901 178.864 172.423 178.864ZM182.555 174.416C182.555 173.328 182.801 172.352 183.291 171.488C183.782 170.613 184.449 169.931 185.291 169.44C186.145 168.949 187.089 168.704 188.123 168.704C189.339 168.704 190.401 168.997 191.307 169.584C192.214 170.171 192.875 171.003 193.291 172.08H191.547C191.238 171.408 190.79 170.891 190.203 170.528C189.627 170.165 188.934 169.984 188.123 169.984C187.345 169.984 186.646 170.165 186.027 170.528C185.409 170.891 184.923 171.408 184.571 172.08C184.219 172.741 184.043 173.52 184.043 174.416C184.043 175.301 184.219 176.08 184.571 176.752C184.923 177.413 185.409 177.925 186.027 178.288C186.646 178.651 187.345 178.832 188.123 178.832C188.934 178.832 189.627 178.656 190.203 178.304C190.79 177.941 191.238 177.424 191.547 176.752H193.291C192.875 177.819 192.214 178.645 191.307 179.232C190.401 179.808 189.339 180.096 188.123 180.096C187.089 180.096 186.145 179.856 185.291 179.376C184.449 178.885 183.782 178.208 183.291 177.344C182.801 176.48 182.555 175.504 182.555 174.416ZM199.283 180.144C198.461 180.144 197.715 179.957 197.043 179.584C196.381 179.211 195.859 178.683 195.475 178C195.101 177.307 194.915 176.507 194.915 175.6C194.915 174.704 195.107 173.915 195.491 173.232C195.885 172.539 196.419 172.011 197.091 171.648C197.763 171.275 198.515 171.088 199.347 171.088C200.179 171.088 200.931 171.275 201.603 171.648C202.275 172.011 202.803 172.533 203.187 173.216C203.581 173.899 203.779 174.693 203.779 175.6C203.779 176.507 203.576 177.307 203.171 178C202.776 178.683 202.237 179.211 201.555 179.584C200.872 179.957 200.115 180.144 199.283 180.144ZM199.283 178.864C199.805 178.864 200.296 178.741 200.755 178.496C201.213 178.251 201.581 177.883 201.859 177.392C202.147 176.901 202.291 176.304 202.291 175.6C202.291 174.896 202.152 174.299 201.875 173.808C201.597 173.317 201.235 172.955 200.787 172.72C200.339 172.475 199.853 172.352 199.331 172.352C198.797 172.352 198.307 172.475 197.859 172.72C197.421 172.955 197.069 173.317 196.803 173.808C196.536 174.299 196.403 174.896 196.403 175.6C196.403 176.315 196.531 176.917 196.787 177.408C197.053 177.899 197.405 178.267 197.843 178.512C198.28 178.747 198.76 178.864 199.283 178.864ZM205.149 175.584C205.149 174.688 205.33 173.904 205.693 173.232C206.056 172.549 206.552 172.021 207.181 171.648C207.821 171.275 208.536 171.088 209.325 171.088C210.008 171.088 210.642 171.248 211.229 171.568C211.816 171.877 212.264 172.288 212.573 172.8V168.16H214.045V180H212.573V178.352C212.285 178.875 211.858 179.307 211.293 179.648C210.728 179.979 210.066 180.144 209.309 180.144C208.53 180.144 207.821 179.952 207.181 179.568C206.552 179.184 206.056 178.645 205.693 177.952C205.33 177.259 205.149 176.469 205.149 175.584ZM212.573 175.6C212.573 174.939 212.44 174.363 212.173 173.872C211.906 173.381 211.544 173.008 211.085 172.752C210.637 172.485 210.141 172.352 209.597 172.352C209.053 172.352 208.557 172.48 208.109 172.736C207.661 172.992 207.304 173.365 207.037 173.856C206.77 174.347 206.637 174.923 206.637 175.584C206.637 176.256 206.77 176.843 207.037 177.344C207.304 177.835 207.661 178.213 208.109 178.48C208.557 178.736 209.053 178.864 209.597 178.864C210.141 178.864 210.637 178.736 211.085 178.48C211.544 178.213 211.906 177.835 212.173 177.344C212.44 176.843 212.573 176.261 212.573 175.6ZM224.505 175.28C224.505 175.557 224.489 175.851 224.457 176.16H217.449C217.503 177.024 217.796 177.701 218.329 178.192C218.873 178.672 219.529 178.912 220.297 178.912C220.927 178.912 221.449 178.768 221.865 178.48C222.292 178.181 222.591 177.787 222.761 177.296H224.329C224.095 178.139 223.625 178.827 222.921 179.36C222.217 179.883 221.343 180.144 220.297 180.144C219.465 180.144 218.719 179.957 218.057 179.584C217.407 179.211 216.895 178.683 216.521 178C216.148 177.307 215.961 176.507 215.961 175.6C215.961 174.693 216.143 173.899 216.505 173.216C216.868 172.533 217.375 172.011 218.025 171.648C218.687 171.275 219.444 171.088 220.297 171.088C221.129 171.088 221.865 171.269 222.505 171.632C223.145 171.995 223.636 172.496 223.977 173.136C224.329 173.765 224.505 174.48 224.505 175.28ZM223.001 174.976C223.001 174.421 222.879 173.947 222.633 173.552C222.388 173.147 222.052 172.843 221.625 172.64C221.209 172.427 220.745 172.32 220.233 172.32C219.497 172.32 218.868 172.555 218.345 173.024C217.833 173.493 217.54 174.144 217.465 174.976H223.001Z" fill="white"/>
<circle cx="150" cy="298" r="60" fill="#32FEC1" stroke="#202020" stroke-width="20"/>
<path d="M172.6 301.197L170.3 298.947L150.925 318.297L153.25 320.622C155.2 322.572 157.225 323.547 159.225 323.547C161.225 323.547 163.25 322.572 165.2 320.622L172.6 313.222C176.575 309.222 176.575 305.197 172.6 301.197ZM146.725 275.327C142.8 271.402 138.675 271.402 134.75 275.327L127.325 282.727C123.425 286.652 123.425 290.777 127.325 294.702L129.625 297.002L149 277.627L146.725 275.327ZM174.525 277.845C171.25 286.02 163.775 296.695 156.65 303.67C156.144 300.518 154.639 297.612 152.357 295.38C150.075 293.148 147.137 291.707 143.975 291.27C150.975 284.12 161.725 276.545 169.925 273.245C171.375 272.695 172.825 273.12 173.725 274.02C174.675 274.97 175.125 276.395 174.525 277.845Z" fill="#202020"/>
<path d="M154.45 305.725C153.95 306.15 153.45 306.575 152.95 306.975L148.475 310.55C148.475 310.475 148.45 310.375 148.45 310.275C148.1 307.6 146.85 305.125 144.825 303.1C142.839 301.086 140.232 299.8 137.425 299.45C137.35 299.45 137.25 299.425 137.175 299.425L140.8 294.85C141.15 294.4 141.525 293.975 141.925 293.525L143.625 293.75C149 294.5 153.325 298.725 154.175 304.075L154.45 305.725Z" fill="#202020"/>
<path d="M146.075 312.05C146.075 314.8 145.025 317.425 143.025 319.4C141.5 320.95 139.45 322 136.95 322.3L130.825 322.975C127.475 323.35 124.6 320.475 124.975 317.1L125.65 310.95C126.25 305.475 130.825 301.975 135.675 301.875C136.15 301.85 136.675 301.875 137.175 301.925C139.3 302.2 141.35 303.175 143.075 304.875C144.75 306.55 145.7 308.525 145.975 310.6C146.025 311.1 146.075 311.575 146.075 312.05Z" fill="#202020"/>
</svg>
